<?xml version="1.0" standalone="no"?>
<!DOCTYPE svg PUBLIC "-//W3C//DTD SVG 20010904//EN"
 "http://www.w3.org/TR/2001/REC-SVG-20010904/DTD/svg10.dtd">
<svg version="1.0" xmlns="http://www.w3.org/2000/svg"
 width="500.000000pt" height="500.000000pt" viewBox="0 0 500.000000 500.000000"
 preserveAspectRatio="xMidYMid meet">

<g transform="translate(0.000000,500.000000) scale(0.100000,-0.100000)"
fill="#000000" stroke="none">
<path d="M1010 4830 c0 -5 7 -10 15 -10 8 0 15 5 15 10 0 6 -7 10 -15 10 -8 0
-15 -4 -15 -10z"/>
<path d="M905 4815 l-30 -14 30 6 c17 3 37 9 45 14 27 15 -11 10 -45 -6z"/>
<path d="M4040 4820 c0 -5 4 -10 9 -10 6 0 13 5 16 10 3 6 -1 10 -9 10 -9 0
-16 -4 -16 -10z"/>
<path d="M4118 4803 c7 -3 16 -2 19 1 4 3 -2 6 -13 5 -11 0 -14 -3 -6 -6z"/>
<path d="M896 4791 c-7 -10 50 -20 76 -13 10 2 18 8 18 13 0 12 -87 12 -94 0z"/>
<path d="M4080 4792 c0 -6 -8 -13 -17 -15 -10 -3 -2 -5 17 -6 19 0 31 3 25 7
-5 4 -13 11 -17 16 -5 5 -8 5 -8 -2z"/>
<path d="M4151 4791 c-10 -7 -8 -9 10 -9 13 0 38 -3 54 -6 28 -6 28 -5 -5 8
-43 18 -42 18 -59 7z"/>
<path d="M860 4781 c0 -6 5 -13 10 -16 6 -3 10 1 10 9 0 9 -4 16 -10 16 -5 0
-10 -4 -10 -9z"/>
<path d="M780 4770 c0 -5 5 -10 10 -10 6 0 10 5 10 10 0 6 -4 10 -10 10 -5 0
-10 -4 -10 -10z"/>
<path d="M4148 4763 c6 -2 18 -2 25 0 6 3 1 5 -13 5 -14 0 -19 -2 -12 -5z"/>
<path d="M4241 4744 c0 -11 3 -14 6 -6 3 7 2 16 -1 19 -3 4 -6 -2 -5 -13z"/>
<path d="M4279 4747 c7 -10 22 -17 32 -17 11 0 19 -5 19 -11 0 -8 -11 -9 -32
-5 -24 4 -29 3 -18 -4 21 -14 46 -12 59 4 9 11 5 16 -21 27 -18 7 -37 15 -43
17 -5 3 -4 -2 4 -11z"/>
<path d="M672 4731 c-9 -5 -3 -8 17 -7 17 1 31 4 31 9 0 10 -32 9 -48 -2z"/>
<path d="M626 4704 c-11 -8 -16 -14 -10 -14 13 0 39 18 34 24 -3 2 -14 -2 -24
-10z"/>
<path d="M705 4700 c3 -5 8 -10 11 -10 2 0 4 5 4 10 0 6 -5 10 -11 10 -5 0 -7
-4 -4 -10z"/>
<path d="M4373 4693 c9 -9 20 -13 24 -9 4 4 1 11 -7 16 -25 16 -35 11 -17 -7z"/>
<path d="M572 4660 c-28 -26 -27 -28 1 -23 27 5 56 43 34 43 -7 0 -23 -9 -35
-20z"/>
<path d="M4403 4644 c-6 -17 20 -44 41 -44 6 0 0 7 -12 16 -18 13 -21 19 -11
30 9 10 9 14 0 14 -6 0 -14 -7 -18 -16z"/>
<path d="M607 4643 c-13 -12 -7 -43 8 -43 9 0 12 6 9 15 -4 8 -1 15 5 15 6 0
11 5 11 10 0 11 -23 14 -33 3z"/>
<path d="M4475 4602 c17 -17 32 -29 34 -26 6 6 -20 34 -43 46 -15 8 -12 2 9
-20z"/>
<path d="M506 4610 c8 -8 64 -8 64 -1 0 4 -15 7 -34 7 -19 0 -32 -3 -30 -6z"/>
<path d="M4516 4596 c3 -7 16 -19 29 -26 20 -11 24 -19 20 -42 -5 -27 -5 -28
13 -11 18 17 17 19 -20 56 -42 40 -50 45 -42 23z"/>
<path d="M460 4581 c0 -6 4 -13 10 -16 6 -3 7 1 4 9 -7 18 -14 21 -14 7z"/>
<path d="M440 4563 c0 -15 18 -35 23 -27 3 5 -1 15 -9 22 -8 7 -14 9 -14 5z"/>
<path d="M416 4533 c-6 -14 -5 -15 5 -6 7 7 10 15 7 18 -3 3 -9 -2 -12 -12z"/>
<path d="M4487 4536 c-4 -10 -1 -13 9 -9 15 6 19 23 5 23 -5 0 -11 -7 -14 -14z"/>
<path d="M4610 4501 c0 -5 5 -13 10 -16 6 -3 10 -2 10 4 0 5 -4 13 -10 16 -5
3 -10 2 -10 -4z"/>
<path d="M369 4483 c-13 -16 -12 -17 4 -4 9 7 17 15 17 17 0 8 -8 3 -21 -13z"/>
<path d="M4580 4491 c0 -6 5 -13 10 -16 6 -3 10 1 10 9 0 9 -4 16 -10 16 -5 0
-10 -4 -10 -9z"/>
<path d="M384 4469 c-3 -6 -2 -15 3 -20 5 -5 9 -1 9 11 0 23 -2 24 -12 9z"/>
<path d="M344 4444 c-4 -10 -12 -22 -17 -25 -5 -4 -8 -12 -5 -20 3 -8 11 -5
27 12 l23 24 -7 -25 c-4 -14 -10 -31 -12 -37 -11 -28 15 -11 27 18 12 27 11
33 -8 52 -21 20 -21 20 -28 1z"/>
<path d="M4600 4450 c0 -5 4 -10 9 -10 6 0 13 5 16 10 3 6 -1 10 -9 10 -9 0
-16 -4 -16 -10z"/>
<path d="M4654 4431 c15 -17 16 -23 6 -35 -6 -9 -10 -21 -7 -28 4 -8 8 -4 13
10 4 14 12 21 21 18 19 -8 -17 41 -36 49 -10 4 -9 -1 3 -14z"/>
<path d="M282 4348 c-12 -23 -20 -43 -18 -45 2 -3 10 6 17 18 12 23 12 23 19
4 5 -13 7 -5 6 23 0 23 -1 42 -1 42 0 0 -10 -19 -23 -42z"/>
<path d="M4723 4318 c0 -18 2 -27 5 -20 2 6 8 9 14 6 8 -5 -5 29 -17 44 -1 1
-2 -13 -2 -30z"/>
<path d="M285 4290 c-3 -5 -1 -10 4 -10 6 0 11 5 11 10 0 6 -2 10 -4 10 -3 0
-8 -4 -11 -10z"/>
<path d="M4740 4235 c0 -8 4 -15 10 -15 5 0 7 7 4 15 -4 8 -8 15 -10 15 -2 0
-4 -7 -4 -15z"/>
<path d="M216 4215 c-3 -8 -1 -15 4 -15 6 0 10 7 10 15 0 8 -2 15 -4 15 -2 0
-6 -7 -10 -15z"/>
<path d="M4801 4164 c0 -11 3 -14 6 -6 3 7 2 16 -1 19 -3 4 -6 -2 -5 -13z"/>
<path d="M217 4113 c3 -7 6 -13 8 -13 2 0 5 6 8 13 3 8 -1 14 -8 14 -7 0 -11
-6 -8 -14z"/>
<path d="M2255 4110 c3 -5 16 -10 28 -10 18 0 19 2 7 10 -20 13 -43 13 -35 0z"/>
<path d="M2678 4113 c7 -3 16 -2 19 1 4 3 -2 6 -13 5 -11 0 -14 -3 -6 -6z"/>
<path d="M2893 4113 c9 -2 23 -2 30 0 6 3 -1 5 -18 5 -16 0 -22 -2 -12 -5z"/>
<path d="M2090 4100 c8 -5 24 -9 35 -9 l20 0 -20 9 c-11 5 -27 9 -35 9 -13 1
-13 0 0 -9z"/>
<path d="M2220 4106 c0 -2 7 -7 16 -10 8 -3 12 -2 9 4 -6 10 -25 14 -25 6z"/>
<path d="M2755 4101 c3 -3 23 -6 43 -7 20 -1 59 -4 85 -7 26 -3 45 -2 42 1 -3
4 -20 7 -38 9 -116 9 -137 10 -132 4z"/>
<path d="M181 4093 c-1 -6 -4 -20 -7 -30 -5 -17 -5 -17 6 0 6 10 9 23 6 30 -3
9 -5 9 -5 0z"/>
<path d="M197 4074 c-5 -29 2 -64 13 -64 10 0 11 78 1 85 -5 2 -11 -7 -14 -21z"/>
<path d="M4802 4060 c0 -14 2 -19 5 -12 2 6 2 18 0 25 -3 6 -5 1 -5 -13z"/>
<path d="M2109 4050 l-24 -21 35 17 c43 21 47 24 28 24 -9 0 -26 -9 -39 -20z"/>
<path d="M2925 4061 c-19 -8 -19 -8 4 -20 18 -10 22 -10 16 -1 -4 7 -1 16 6
21 17 11 1 11 -26 0z"/>
<path d="M4826 4037 c3 -10 9 -15 12 -12 3 3 0 11 -7 18 -10 9 -11 8 -5 -6z"/>
<path d="M2010 4030 c0 -5 5 -10 11 -10 5 0 7 5 4 10 -3 6 -8 10 -11 10 -2 0
-4 -4 -4 -10z"/>
<path d="M2976 4032 c-3 -6 -1 -14 5 -17 14 -9 20 -2 10 14 -6 8 -11 9 -15 3z"/>
<path d="M3010 4029 c0 -11 21 -11 39 0 9 6 5 9 -13 9 -14 0 -26 -4 -26 -9z"/>
<path d="M3105 4020 c3 -5 8 -10 11 -10 2 0 4 5 4 10 0 6 -5 10 -11 10 -5 0
-7 -4 -4 -10z"/>
<path d="M3070 4006 c0 -2 7 -7 16 -10 8 -3 12 -2 9 4 -6 10 -25 14 -25 6z"/>
<path d="M1983 3990 c-13 -5 -23 -14 -23 -20 0 -8 28 5 59 27 9 6 -15 1 -36
-7z"/>
<path d="M160 3975 c0 -8 5 -15 10 -15 6 0 10 7 10 15 0 8 -4 15 -10 15 -5 0
-10 -7 -10 -15z"/>
<path d="M3050 3980 c20 -13 33 -13 25 0 -3 6 -14 10 -23 10 -15 0 -15 -2 -2
-10z"/>
<path d="M4841 3974 c0 -11 3 -14 6 -6 3 7 2 16 -1 19 -3 4 -6 -2 -5 -13z"/>
<path d="M1880 3950 c-12 -8 -13 -11 -1 -19 15 -10 -3 -26 -18 -16 -5 3 -12 2
-15 -3 -2 -4 6 -9 20 -10 22 -2 29 8 25 32 -1 5 4 13 11 17 7 5 9 9 3 9 -5 0
-17 -5 -25 -10z"/>
<path d="M3140 3948 c0 -4 15 -15 33 -23 23 -12 27 -12 15 -2 -23 18 -23 31
-1 23 10 -4 14 -3 9 1 -10 10 -56 11 -56 1z"/>
<path d="M4848 2743 c1 -653 3 -1296 5 -1428 1 -132 3 392 4 1165 0 773 -2
1415 -5 1428 -4 13 -6 -511 -4 -1165z"/>
<path d="M2348 3913 c7 -3 16 -2 19 1 4 3 -2 6 -13 5 -11 0 -14 -3 -6 -6z"/>
<path d="M2443 3903 c9 -2 23 -2 30 0 6 3 -1 5 -18 5 -16 0 -22 -2 -12 -5z"/>
<path d="M2568 3903 c6 -2 18 -2 25 0 6 3 1 5 -13 5 -14 0 -19 -2 -12 -5z"/>
<path d="M2268 3893 c7 -3 16 -2 19 1 4 3 -2 6 -13 5 -11 0 -14 -3 -6 -6z"/>
<path d="M2380 3890 c0 -5 5 -10 10 -10 6 0 10 5 10 10 0 6 -4 10 -10 10 -5 0
-10 -4 -10 -10z"/>
<path d="M2498 3883 c12 -2 32 -2 45 0 12 2 2 4 -23 4 -25 0 -35 -2 -22 -4z"/>
<path d="M3220 3851 c25 -21 47 -37 49 -35 2 2 -8 13 -23 25 -14 11 -33 27
-40 35 -8 8 -18 14 -23 14 -4 0 12 -18 37 -39z"/>
<path d="M155 2520 c0 -751 1 -1058 2 -682 2 375 2 989 0 1365 -1 375 -2 68
-2 -683z"/>
<path d="M1784 3866 c-10 -8 -17 -17 -14 -19 3 -3 16 3 29 14 27 22 15 26 -15
5z"/>
<path d="M2225 3870 c3 -5 8 -10 11 -10 2 0 4 5 4 10 0 6 -5 10 -11 10 -5 0
-7 -4 -4 -10z"/>
<path d="M3263 3873 c-15 -5 -17 -23 -4 -23 5 0 11 7 15 15 3 8 4 15 3 14 -1
0 -8 -3 -14 -6z"/>
<path d="M2170 3860 c-13 -8 -13 -10 2 -10 9 0 20 5 23 10 8 13 -5 13 -25 0z"/>
<path d="M2845 3860 c3 -5 11 -10 16 -10 6 0 7 5 4 10 -3 6 -11 10 -16 10 -6
0 -7 -4 -4 -10z"/>
<path d="M2880 3839 c0 -5 5 -7 10 -4 6 3 10 8 10 11 0 2 -4 4 -10 4 -5 0 -10
-5 -10 -11z"/>
<path d="M2198 3833 c7 -3 16 -2 19 1 4 3 -2 6 -13 5 -11 0 -14 -3 -6 -6z"/>
<path d="M2828 3833 c7 -3 16 -2 19 1 4 3 -2 6 -13 5 -11 0 -14 -3 -6 -6z"/>
<path d="M2146 3821 c-3 -5 5 -11 19 -13 20 -4 23 -3 14 8 -13 16 -25 18 -33
5z"/>
<path d="M2225 3810 c3 -5 8 -10 11 -10 2 0 4 5 4 10 0 6 -5 10 -11 10 -5 0
-7 -4 -4 -10z"/>
<path d="M2860 3810 c-23 -7 -23 -8 -3 -9 12 -1 25 4 28 9 3 6 5 10 3 9 -2 -1
-14 -5 -28 -9z"/>
<path d="M1760 3799 c0 -5 5 -7 10 -4 6 3 10 8 10 11 0 2 -4 4 -10 4 -5 0 -10
-5 -10 -11z"/>
<path d="M2956 3798 c3 -5 10 -6 15 -3 13 9 11 12 -6 12 -8 0 -12 -4 -9 -9z"/>
<path d="M1715 3789 c-4 -6 -5 -12 -2 -15 2 -3 7 2 10 11 7 17 1 20 -8 4z"/>
<path d="M2996 3785 c4 -8 11 -15 16 -15 6 0 5 6 -2 15 -7 8 -14 15 -16 15 -2
0 -1 -7 2 -15z"/>
<path d="M1734 3776 c-3 -9 -12 -16 -19 -16 -7 0 -18 -6 -24 -14 -10 -12 -9
-13 8 -9 24 6 57 40 48 49 -4 4 -9 -1 -13 -10z"/>
<path d="M3293 3777 c-4 -7 0 -8 11 -4 14 5 17 3 13 -8 -4 -8 -1 -17 5 -21 7
-4 8 -3 4 4 -4 7 -2 12 3 12 10 0 15 -14 12 -33 -1 -4 5 -18 14 -30 8 -12 15
-16 15 -10 0 7 -5 15 -11 18 -6 4 -8 14 -5 22 4 9 1 22 -5 29 -6 7 -8 17 -5
22 3 5 -6 10 -19 10 -14 0 -28 -5 -32 -11z"/>
<path d="M1999 3760 c-14 -11 -18 -19 -11 -20 7 0 11 -4 7 -10 -3 -5 -11 -7
-18 -4 -7 2 -22 -4 -32 -16 -11 -12 -13 -20 -6 -20 6 0 14 7 17 15 8 21 24 19
25 -2 0 -14 2 -15 6 -3 3 8 15 23 27 33 20 16 20 17 1 11 -18 -5 -17 -3 4 15
30 27 11 28 -20 1z"/>
<path d="M2965 3761 c-3 -5 0 -13 6 -17 7 -4 9 -3 5 4 -3 5 0 13 6 15 9 4 10
6 1 6 -6 1 -14 -3 -18 -8z"/>
<path d="M3036 3756 c6 -16 4 -18 -12 -13 -16 6 -16 4 4 -12 12 -11 22 -25 22
-33 1 -9 4 -9 13 3 10 14 14 14 25 3 7 -8 18 -14 24 -14 6 0 9 1 7 3 -2 1 -24
20 -47 42 -27 25 -40 33 -36 21z m29 -26 c3 -5 2 -10 -4 -10 -5 0 -13 5 -16
10 -3 6 -2 10 4 10 5 0 13 -4 16 -10z"/>
<path d="M2053 3741 l-23 -19 23 2 c14 0 23 7 23 18 0 10 0 18 -1 18 0 -1 -10
-9 -22 -19z"/>
<path d="M1630 3681 c-16 -32 -18 -46 -10 -59 9 -15 10 -14 5 5 -3 12 -1 24 5
28 5 3 10 1 10 -6 0 -6 9 -1 19 12 11 13 17 26 15 28 -2 3 -11 -4 -19 -15 -11
-15 -14 -16 -15 -3 0 8 5 20 12 27 6 6 9 14 6 18 -4 3 -16 -13 -28 -35z"/>
<path d="M1676 3708 c3 -5 10 -6 15 -3 13 9 11 12 -6 12 -8 0 -12 -4 -9 -9z"/>
<path d="M3416 3698 c10 -13 20 -24 20 -26 1 -2 1 8 0 22 -1 18 -7 26 -20 26
-19 0 -19 0 0 -22z"/>
<path d="M1900 3667 c-8 -12 -13 -25 -12 -29 1 -5 -4 -8 -12 -8 -8 0 -16 -7
-20 -15 -3 -8 -2 -15 2 -15 14 0 33 17 35 31 4 27 17 36 41 32 13 -3 27 1 31
8 6 9 3 10 -10 6 -9 -4 -23 -3 -29 2 -8 7 -16 3 -26 -12z"/>
<path d="M3100 3670 c-13 -8 -13 -10 2 -10 9 0 20 5 23 10 8 13 -5 13 -25 0z"/>
<path d="M3380 3675 c0 -5 9 -23 20 -40 26 -39 26 -25 0 17 -11 18 -20 29 -20
23z"/>
<path d="M1970 3655 c-7 -8 -8 -15 -2 -15 5 0 15 7 22 15 7 8 8 15 2 15 -5 0
-15 -7 -22 -15z"/>
<path d="M3040 3660 c0 -6 7 -13 15 -17 24 -9 27 1 5 15 -13 8 -20 8 -20 2z"/>
<path d="M1918 3643 c6 -2 18 -2 25 0 6 3 1 5 -13 5 -14 0 -19 -2 -12 -5z"/>
<path d="M3120 3638 c0 -11 12 -10 30 2 12 7 10 9 -8 7 -12 0 -22 -5 -22 -9z"/>
<path d="M3170 3621 c0 -6 4 -13 10 -16 6 -3 7 1 4 9 -7 18 -14 21 -14 7z"/>
<path d="M1602 3600 c0 -14 2 -19 5 -12 2 6 2 18 0 25 -3 6 -5 1 -5 -13z"/>
<path d="M1912 3585 c0 -16 2 -22 5 -12 2 9 2 23 0 30 -3 6 -5 -1 -5 -18z"/>
<path d="M3121 3584 c0 -11 3 -14 6 -6 3 7 2 16 -1 19 -3 4 -6 -2 -5 -13z"/>
<path d="M1880 3581 c0 -5 5 -13 10 -16 6 -3 10 -2 10 4 0 5 -4 13 -10 16 -5
3 -10 2 -10 -4z"/>
<path d="M3170 3581 c0 -6 5 -13 10 -16 6 -3 10 1 10 9 0 9 -4 16 -10 16 -5 0
-10 -4 -10 -9z"/>
<path d="M1850 3570 c0 -5 5 -10 10 -10 6 0 10 5 10 10 0 6 -4 10 -10 10 -5 0
-10 -4 -10 -10z"/>
<path d="M3210 3576 c0 -2 8 -10 18 -17 15 -13 16 -12 3 4 -13 16 -21 21 -21
13z"/>
<path d="M2033 3553 c24 -6 21 -21 -5 -26 -21 -3 -21 -4 -5 -11 13 -6 22 -3
32 10 14 20 4 35 -25 33 -11 -1 -10 -3 3 -6z"/>
<path d="M2306 3547 c3 -10 9 -15 12 -12 3 3 0 11 -7 18 -10 9 -11 8 -5 -6z"/>
<path d="M3457 3540 c3 -11 10 -23 16 -27 7 -4 8 0 4 11 -4 10 -7 22 -7 27 0
5 -4 9 -9 9 -5 0 -7 -9 -4 -20z"/>
<path d="M2095 3540 c-3 -5 -2 -10 4 -10 5 0 13 5 16 10 3 6 2 10 -4 10 -5 0
-13 -4 -16 -10z"/>
<path d="M2282 3530 c7 -10 14 -18 15 -16 6 6 -9 36 -18 36 -5 0 -4 -9 3 -20z"/>
<path d="M1543 3504 c10 -33 13 -35 15 -15 2 13 -3 31 -12 39 -14 14 -14 12
-3 -24z"/>
<path d="M1560 3531 c0 -5 5 -13 10 -16 6 -3 10 -2 10 4 0 5 -4 13 -10 16 -5
3 -10 2 -10 -4z"/>
<path d="M1799 3535 c-1 -5 -1 -19 0 -30 2 -17 0 -18 -9 -5 -9 12 -11 12 -8 1
3 -8 9 -16 15 -18 15 -5 25 26 13 45 -5 10 -10 13 -11 7z"/>
<path d="M3217 3534 c-12 -12 -8 -36 5 -28 7 5 9 2 6 -8 -4 -10 1 -14 22 -14
21 0 27 3 22 15 -4 10 -7 11 -10 3 -6 -20 -20 -14 -29 14 -5 14 -12 22 -16 18z"/>
<path d="M2055 3500 c-10 -11 -15 -20 -10 -20 4 0 2 -7 -5 -15 -7 -9 -10 -18
-7 -22 4 -3 12 7 19 23 7 16 20 34 28 41 8 7 10 13 4 13 -6 0 -19 -9 -29 -20z"/>
<path d="M1831 3494 c0 -11 3 -14 6 -6 3 7 2 16 -1 19 -3 4 -6 -2 -5 -13z"/>
<path d="M1525 3479 c-4 -6 -5 -12 -2 -15 2 -3 7 2 10 11 7 17 1 20 -8 4z"/>
<path d="M2005 3480 c-3 -6 1 -7 9 -4 18 7 21 14 7 14 -6 0 -13 -4 -16 -10z"/>
<path d="M2350 3470 c0 -5 5 -10 10 -10 6 0 10 5 10 10 0 6 -4 10 -10 10 -5 0
-10 -4 -10 -10z"/>
<path d="M2315 3450 c3 -5 11 -10 16 -10 6 0 7 5 4 10 -3 6 -11 10 -16 10 -6
0 -7 -4 -4 -10z"/>
<path d="M3281 3444 c0 -11 3 -14 6 -6 3 7 2 16 -1 19 -3 4 -6 -2 -5 -13z"/>
<path d="M1727 3417 c-3 -9 -2 -17 4 -17 6 0 8 -10 4 -22 -5 -18 -4 -20 4 -8
9 13 11 12 12 -5 0 -11 3 -15 5 -9 3 7 -1 27 -9 45 -10 27 -15 30 -20 16z"/>
<path d="M2010 3420 c-8 -5 -12 -12 -9 -15 4 -3 12 1 19 10 14 17 11 19 -10 5z"/>
<path d="M2340 3415 c0 -8 5 -15 10 -15 6 0 15 -10 20 -22 9 -23 9 -23 9 -1 1
12 7 23 14 26 6 2 8 8 4 13 -4 5 -12 2 -17 -6 -8 -12 -10 -12 -16 3 -8 21 -24
22 -24 2z"/>
<path d="M1470 3390 c0 -5 5 -10 10 -10 6 0 10 5 10 10 0 6 -4 10 -10 10 -5 0
-10 -4 -10 -10z"/>
<path d="M2011 3374 c0 -11 3 -14 6 -6 3 7 2 16 -1 19 -3 4 -6 -2 -5 -13z"/>
<path d="M1505 3370 c-3 -5 -1 -10 4 -10 6 0 11 5 11 10 0 6 -2 10 -4 10 -3 0
-8 -4 -11 -10z"/>
<path d="M3306 3365 c-9 -26 -7 -32 5 -12 6 10 9 21 6 23 -2 3 -7 -2 -11 -11z"/>
<path d="M3521 3375 c0 -18 28 -61 29 -44 0 8 -7 24 -15 35 -8 10 -14 15 -14
9z"/>
<path d="M2350 3361 c0 -6 4 -13 10 -16 6 -3 7 1 4 9 -7 18 -14 21 -14 7z"/>
<path d="M3561 3354 c0 -11 3 -14 6 -6 3 7 2 16 -1 19 -3 4 -6 -2 -5 -13z"/>
<path d="M3591 3354 c0 -11 3 -14 6 -6 3 7 2 16 -1 19 -3 4 -6 -2 -5 -13z"/>
<path d="M1476 3333 c-6 -15 -8 -15 -16 -3 -5 8 -12 11 -17 7 -4 -5 -2 -11 4
-15 6 -4 13 -16 16 -27 4 -17 5 -17 6 4 1 18 6 22 20 18 14 -3 17 0 14 14 -7
24 -19 24 -27 2z"/>
<path d="M1718 3309 c-5 -48 -1 -69 14 -69 5 0 5 6 0 17 -5 9 -6 28 -2 43 4
15 4 33 0 40 -5 7 -9 -5 -12 -31z"/>
<path d="M1692 3304 c-1 -13 0 -24 2 -24 7 0 14 40 7 44 -4 3 -8 -6 -9 -20z"/>
<path d="M2380 3314 c0 -10 5 -26 10 -34 8 -11 9 -7 4 15 -8 37 -14 45 -14 19z"/>
<path d="M3308 3317 c-9 -6 -8 -7 5 -3 10 3 17 0 17 -8 0 -7 8 -20 17 -27 15
-12 16 -12 9 6 -5 11 -9 25 -9 31 0 13 -22 14 -39 1z"/>
<path d="M2002 3300 c0 -14 2 -19 5 -12 2 6 2 18 0 25 -3 6 -5 1 -5 -13z"/>
<path d="M3574 3296 c-7 -30 -2 -57 11 -57 5 0 11 5 13 13 2 9 0 8 -8 -2 -9
-12 -10 -5 -5 28 7 45 -1 58 -11 18z"/>
<path d="M1741 3284 c0 -11 3 -14 6 -6 3 7 2 16 -1 19 -3 4 -6 -2 -5 -13z"/>
<path d="M3297 3266 c-4 -10 0 -12 14 -9 10 3 16 9 13 14 -8 13 -21 11 -27 -5z"/>
<path d="M1441 3260 c0 -8 4 -24 9 -35 5 -13 9 -14 9 -5 0 8 -4 24 -9 35 -5
13 -9 14 -9 5z"/>
<path d="M1472 3245 c0 -16 2 -22 5 -12 2 9 2 23 0 30 -3 6 -5 -1 -5 -18z"/>
<path d="M2367 3263 c-11 -11 -8 -25 4 -17 6 3 15 0 20 -7 5 -8 9 -9 9 -3 0
15 -25 36 -33 27z"/>
<path d="M1675 3239 c-11 -16 -1 -19 13 -3 7 8 8 14 3 14 -5 0 -13 -5 -16 -11z"/>
<path d="M3551 3224 c0 -11 3 -14 6 -6 3 7 2 16 -1 19 -3 4 -6 -2 -5 -13z"/>
<path d="M2337 3223 c-4 -3 -7 -11 -7 -17 0 -6 5 -5 12 2 6 6 9 14 7 17 -3 3
-9 2 -12 -2z"/>
<path d="M2010 3199 c0 -11 5 -17 10 -14 6 3 10 13 10 21 0 8 -4 14 -10 14 -5
0 -10 -9 -10 -21z"/>
<path d="M2391 3194 c0 -11 3 -14 6 -6 3 7 2 16 -1 19 -3 4 -6 -2 -5 -13z"/>
<path d="M3590 3196 c0 -7 -7 -19 -15 -26 -8 -7 -14 -20 -14 -29 1 -13 2 -12
6 2 3 10 10 16 16 14 7 -3 13 7 14 24 1 16 0 29 -2 29 -3 0 -5 -6 -5 -14z"/>
<path d="M2306 3183 c-6 -14 -5 -15 5 -6 7 7 10 15 7 18 -3 3 -9 -2 -12 -12z"/>
<path d="M1455 3160 c-4 -17 -5 -34 -2 -36 2 -3 7 10 11 27 8 42 0 50 -9 9z"/>
<path d="M2330 3169 c0 -5 5 -7 10 -4 6 3 10 8 10 11 0 2 -4 4 -10 4 -5 0 -10
-5 -10 -11z"/>
<path d="M2372 3160 c7 -11 16 -20 20 -20 15 0 8 15 -12 28 -19 12 -20 11 -8
-8z"/>
<path d="M2016 3144 c-8 -30 1 -67 15 -59 5 4 9 14 9 23 0 15 -2 15 -11 2 -8
-11 -9 -5 -4 23 7 42 0 50 -9 11z"/>
<path d="M2040 3148 c0 -9 5 -20 11 -24 6 -3 9 -15 6 -25 -3 -11 -1 -19 4 -19
13 0 10 32 -6 60 -10 18 -14 20 -15 8z"/>
<path d="M3362 3080 c0 -19 2 -27 5 -17 2 9 2 25 0 35 -3 9 -5 1 -5 -18z"/>
<path d="M3582 3042 c-1 -30 -6 -41 -14 -36 -7 5 -8 3 -3 -5 13 -22 27 4 22
45 l-4 39 -1 -43z"/>
<path d="M2360 3046 c0 -2 7 -9 15 -16 13 -11 14 -10 9 4 -5 14 -24 23 -24 12z"/>
<path d="M1450 3021 c0 -11 4 -22 9 -25 4 -3 6 6 3 19 -5 30 -12 33 -12 6z"/>
<path d="M2104 3029 c-3 -6 -2 -15 3 -20 5 -5 9 -1 9 11 0 23 -2 24 -12 9z"/>
<path d="M1481 2984 c0 -11 3 -14 6 -6 3 7 2 16 -1 19 -3 4 -6 -2 -5 -13z"/>
<path d="M2080 2985 c0 -8 5 -15 10 -15 6 0 10 7 10 15 0 8 -4 15 -10 15 -5 0
-10 -7 -10 -15z"/>
<path d="M2425 2991 c-6 -10 32 -51 48 -51 5 0 -2 9 -17 21 -14 11 -24 25 -21
30 4 5 4 9 1 9 -3 0 -7 -4 -11 -9z"/>
<path d="M2456 2992 c-3 -6 -1 -14 5 -17 15 -10 25 3 12 16 -7 7 -13 7 -17 1z"/>
<path d="M2893 2994 c9 -3 17 -13 17 -22 0 -10 9 -23 20 -30 11 -7 20 -8 20
-3 0 5 -6 11 -12 13 -7 3 -13 13 -13 24 0 13 -8 20 -25 21 -14 1 -18 0 -7 -3z"/>
<path d="M2818 2973 c7 -3 16 -2 19 1 4 3 -2 6 -13 5 -11 0 -14 -3 -6 -6z"/>
<path d="M2870 2970 c-9 -6 -10 -10 -3 -10 6 0 15 5 18 10 8 12 4 12 -15 0z"/>
<path d="M2720 2962 c0 -10 36 -9 46 1 4 4 -5 7 -19 7 -15 0 -27 -4 -27 -8z"/>
<path d="M1447 2931 c-4 -17 -3 -21 5 -13 5 5 8 16 6 23 -3 8 -7 3 -11 -10z"/>
<path d="M2880 2940 c8 -6 24 -16 35 -22 20 -11 20 -11 1 11 -11 11 -26 21
-35 21 -14 0 -14 -2 -1 -10z"/>
<path d="M1471 2924 c0 -11 3 -14 6 -6 3 7 2 16 -1 19 -3 4 -6 -2 -5 -13z"/>
<path d="M1670 2931 c0 -6 4 -13 10 -16 6 -3 7 1 4 9 -7 18 -14 21 -14 7z"/>
<path d="M2130 2930 c0 -5 11 -10 25 -10 14 0 25 5 25 10 0 6 -11 10 -25 10
-14 0 -25 -4 -25 -10z"/>
<path d="M1714 2905 c-3 -8 -4 -20 -1 -27 3 -7 6 -3 6 9 1 12 7 24 14 26 9 4
9 6 -1 6 -7 1 -15 -6 -18 -14z"/>
<path d="M2500 2914 c0 -2 10 -8 21 -15 13 -6 19 -7 15 -1 -3 6 0 12 6 15 7 2
1 4 -14 4 -16 0 -28 -1 -28 -3z"/>
<path d="M2628 2901 c12 -12 27 -21 33 -19 5 2 -5 12 -23 22 l-33 19 23 -22z"/>
<path d="M2967 2907 c3 -5 16 -6 30 -2 16 4 22 2 18 -4 -3 -7 0 -8 10 -5 9 4
13 9 10 12 -10 10 -75 9 -68 -1z"/>
<path d="M3100 2910 c0 -5 5 -10 10 -10 6 0 10 5 10 10 0 6 -4 10 -10 10 -5 0
-10 -4 -10 -10z"/>
<path d="M3348 2913 c7 -3 16 -2 19 1 4 3 -2 6 -13 5 -11 0 -14 -3 -6 -6z"/>
<path d="M3567 2885 c3 -22 7 -42 9 -44 8 -9 2 45 -6 64 -7 14 -8 8 -3 -20z"/>
<path d="M2193 2902 c-16 -10 -6 -49 14 -57 24 -9 29 4 7 19 -25 19 -12 31 18
15 23 -12 23 -12 4 10 -21 23 -25 24 -43 13z"/>
<path d="M2687 2899 c7 -7 15 -10 18 -7 3 3 -2 9 -12 12 -14 6 -15 5 -6 -5z"/>
<path d="M2568 2893 c7 -3 16 -2 19 1 4 3 -2 6 -13 5 -11 0 -14 -3 -6 -6z"/>
<path d="M3281 2884 c0 -11 3 -14 6 -6 3 7 2 16 -1 19 -3 4 -6 -2 -5 -13z"/>
<path d="M1461 2874 c0 -11 3 -14 6 -6 3 7 2 16 -1 19 -3 4 -6 -2 -5 -13z"/>
<path d="M3541 2874 c0 -11 3 -14 6 -6 3 7 2 16 -1 19 -3 4 -6 -2 -5 -13z"/>
<path d="M1740 2860 c0 -20 -2 -22 -11 -10 -8 12 -10 12 -7 1 5 -17 38 -24 38
-8 0 7 -5 19 -10 27 -8 12 -10 10 -10 -10z"/>
<path d="M3300 2864 c0 -8 5 -12 10 -9 6 3 10 10 10 16 0 5 -4 9 -10 9 -5 0
-10 -7 -10 -16z"/>
<path d="M3336 2863 c-4 -9 -1 -21 5 -27 9 -8 10 -8 5 2 -4 7 -2 19 4 27 7 9
8 15 2 15 -5 0 -13 -8 -16 -17z"/>
<path d="M1475 2850 c-3 -5 -1 -18 4 -27 9 -16 10 -14 11 10 0 28 -5 34 -15
17z"/>
<path d="M2250 2856 c0 -2 7 -7 16 -10 8 -3 12 -2 9 4 -6 10 -25 14 -25 6z"/>
<path d="M1440 2836 c0 -9 5 -16 10 -16 6 0 10 4 10 9 0 6 -4 13 -10 16 -5 3
-10 -1 -10 -9z"/>
<path d="M3080 2830 c0 -5 5 -10 10 -10 6 0 10 5 10 10 0 6 -4 10 -10 10 -5 0
-10 -4 -10 -10z"/>
<path d="M3532 2815 c-7 -15 -11 -30 -8 -32 7 -7 28 36 24 49 -2 6 -9 -2 -16
-17z"/>
<path d="M2280 2822 c0 -12 19 -26 26 -19 2 2 -2 10 -11 17 -9 8 -15 8 -15 2z"/>
<path d="M3561 2804 c0 -11 3 -14 6 -6 3 7 2 16 -1 19 -3 4 -6 -2 -5 -13z"/>
<path d="M3591 2804 c0 -11 3 -14 6 -6 3 7 2 16 -1 19 -3 4 -6 -2 -5 -13z"/>
<path d="M3294 2782 c-8 -21 -7 -31 3 -41 12 -10 13 -8 8 16 -5 19 -4 24 3 15
7 -11 11 -8 15 9 4 13 4 25 2 28 -3 2 -5 -2 -5 -10 0 -10 -2 -11 -8 -2 -5 8
-11 4 -18 -15z"/>
<path d="M1500 2786 c0 -8 5 -18 10 -21 6 -3 10 3 10 14 0 12 -4 21 -10 21 -5
0 -10 -6 -10 -14z"/>
<path d="M3070 2783 c0 -13 5 -23 10 -23 13 0 13 11 0 30 -8 12 -10 11 -10 -7z"/>
<path d="M1726 2773 c-6 -14 -5 -15 5 -6 7 7 10 15 7 18 -3 3 -9 -2 -12 -12z"/>
<path d="M1445 2770 c-3 -5 1 -10 9 -10 9 0 16 5 16 10 0 6 -4 10 -9 10 -6 0
-13 -4 -16 -10z"/>
<path d="M2329 2763 c-13 -15 -12 -15 9 -4 23 12 28 21 13 21 -5 0 -15 -7 -22
-17z"/>
<path d="M2380 2729 c0 -6 7 -9 15 -5 8 3 15 1 15 -4 0 -6 5 -10 11 -10 8 0 8
5 -1 15 -15 17 -40 20 -40 4z"/>
<path d="M2330 2720 c0 -5 7 -10 15 -10 8 0 15 5 15 10 0 6 -7 10 -15 10 -8 0
-15 -4 -15 -10z"/>
<path d="M2440 2700 c0 -5 7 -10 16 -10 8 0 12 5 9 10 -3 6 -10 10 -16 10 -5
0 -9 -4 -9 -10z"/>
<path d="M1520 2691 c0 -6 4 -13 10 -16 6 -3 7 1 4 9 -7 18 -14 21 -14 7z"/>
<path d="M3017 2693 c-4 -3 -7 -11 -7 -17 0 -6 5 -5 12 2 6 6 9 14 7 17 -3 3
-9 2 -12 -2z"/>
<path d="M2338 2683 c7 -3 16 -2 19 1 4 3 -2 6 -13 5 -11 0 -14 -3 -6 -6z"/>
<path d="M3500 2670 c-7 -14 -8 -26 -1 -38 11 -18 13 -14 16 31 2 32 -1 34
-15 7z"/>
<path d="M1780 2665 c0 -8 2 -15 4 -15 2 0 6 7 10 15 3 8 1 15 -4 15 -6 0 -10
-7 -10 -15z"/>
<path d="M3245 2656 c0 -13 3 -22 8 -19 4 2 7 13 7 24 0 10 -3 19 -7 19 -5 0
-8 -11 -8 -24z"/>
<path d="M1542 2648 c-18 -18 -15 -33 4 -17 15 12 16 11 10 -11 -6 -21 -5 -22
4 -7 6 9 15 15 21 12 5 -3 6 1 3 9 -3 9 -10 14 -14 11 -5 -3 -10 0 -12 5 -2 7
-8 6 -16 -2z"/>
<path d="M1801 2646 c-7 -8 -8 -17 -3 -20 6 -3 12 3 15 14 6 24 4 25 -12 6z"/>
<path d="M3017 2646 c-4 -10 -1 -13 8 -9 8 3 12 9 9 14 -7 12 -11 11 -17 -5z"/>
<path d="M1831 2634 c0 -11 3 -14 6 -6 3 7 2 16 -1 19 -3 4 -6 -2 -5 -13z"/>
<path d="M2555 2639 c-11 -17 1 -21 15 -4 8 9 8 15 2 15 -6 0 -14 -5 -17 -11z"/>
<path d="M2501 2621 c-7 -5 -9 -11 -4 -14 5 -3 15 -2 22 2 7 5 9 11 4 14 -5 3
-15 2 -22 -2z"/>
<path d="M2586 2621 c-4 -5 3 -7 14 -4 23 6 26 13 6 13 -8 0 -17 -4 -20 -9z"/>
<path d="M2615 2610 c-16 -7 -17 -9 -3 -9 9 -1 20 4 23 9 7 11 7 11 -20 0z"/>
<path d="M2968 2608 c6 -6 18 -8 28 -6 14 3 12 5 -9 10 -19 3 -25 2 -19 -4z"/>
<path d="M3175 2591 c-3 -5 -1 -12 5 -16 5 -3 10 1 10 9 0 18 -6 21 -15 7z"/>
<path d="M2783 2573 c9 -2 23 -2 30 0 6 3 -1 5 -18 5 -16 0 -22 -2 -12 -5z"/>
<path d="M1610 2561 c0 -5 5 -13 10 -16 6 -3 10 -2 10 4 0 5 -4 13 -10 16 -5
3 -10 2 -10 -4z"/>
<path d="M2728 2563 c7 -3 16 -2 19 1 4 3 -2 6 -13 5 -11 0 -14 -3 -6 -6z"/>
<path d="M3146 2563 c-3 -4 -6 -10 -6 -14 0 -10 28 -20 34 -11 5 9 -20 32 -28
25z"/>
<path d="M1820 2546 c0 -8 4 -17 9 -20 5 -4 7 3 4 14 -6 23 -13 26 -13 6z"/>
<path d="M2778 2553 c7 -3 16 -2 19 1 4 3 -2 6 -13 5 -11 0 -14 -3 -6 -6z"/>
<path d="M2728 2533 c7 -3 16 -2 19 1 4 3 -2 6 -13 5 -11 0 -14 -3 -6 -6z"/>
<path d="M2843 2533 c9 -2 23 -2 30 0 6 3 -1 5 -18 5 -16 0 -22 -2 -12 -5z"/>
<path d="M3060 2512 c0 -4 16 -6 35 -4 19 2 35 6 35 8 0 2 -16 4 -35 4 -19 0
-35 -4 -35 -8z"/>
<path d="M3135 2500 c-10 -11 -16 -22 -14 -24 2 -2 12 7 22 20 22 29 17 32 -8
4z"/>
<path d="M3382 2500 c-7 -11 -12 -23 -12 -27 0 -5 5 0 11 11 7 12 14 14 18 8
4 -7 11 -4 19 8 7 12 8 20 2 20 -5 0 -10 -6 -10 -12 0 -10 -2 -10 -8 -1 -6 9
-11 7 -20 -7z"/>
<path d="M1807 2493 c-4 -3 -7 -20 -7 -36 0 -38 12 -28 17 13 3 31 1 35 -10
23z"/>
<path d="M3425 2479 c-4 -6 -5 -12 -2 -15 2 -3 7 2 10 11 7 17 1 20 -8 4z"/>
<path d="M3053 2461 c1 -14 9 -26 17 -28 10 -3 11 -2 4 4 -7 4 -14 17 -17 28
-5 16 -5 15 -4 -4z"/>
<path d="M3085 2460 c-3 -5 -2 -10 4 -10 5 0 13 5 16 10 3 6 2 10 -4 10 -5 0
-13 -4 -16 -10z"/>
<path d="M3386 2461 c-3 -5 1 -12 10 -15 22 -8 25 -4 9 11 -8 7 -16 9 -19 4z"/>
<path d="M3346 2452 c-3 -5 1 -9 9 -9 8 0 12 4 9 9 -3 4 -7 8 -9 8 -2 0 -6 -4
-9 -8z"/>
<path d="M3025 2430 c3 -5 8 -10 11 -10 2 0 4 5 4 10 0 6 -5 10 -11 10 -5 0
-7 -4 -4 -10z"/>
<path d="M3335 2420 c-32 -12 -50 -39 -37 -52 14 -14 45 9 38 29 -3 7 1 13 9
13 8 0 15 5 15 10 0 6 -1 10 -2 9 -2 0 -12 -4 -23 -9z m-11 -35 c-4 -8 -10
-15 -15 -15 -4 0 -6 7 -3 15 4 8 10 15 15 15 4 0 6 -7 3 -15z"/>
<path d="M1802 2395 c-6 -14 -8 -25 -3 -25 8 0 23 41 17 47 -1 2 -8 -8 -14
-22z"/>
<path d="M2995 2410 c3 -5 11 -10 16 -10 6 0 7 5 4 10 -3 6 -11 10 -16 10 -6
0 -7 -4 -4 -10z"/>
<path d="M1521 2383 c-1 -12 4 -25 9 -28 12 -7 12 2 0 30 -8 19 -9 19 -9 -2z"/>
<path d="M1771 2378 c-1 -30 15 -46 32 -29 8 8 7 11 -5 11 -9 0 -19 10 -21 23
-4 19 -4 19 -6 -5z"/>
<path d="M2965 2389 c-11 -17 1 -21 15 -4 8 9 8 15 2 15 -6 0 -14 -5 -17 -11z"/>
<path d="M1826 2373 c-6 -14 -5 -15 5 -6 7 7 10 15 7 18 -3 3 -9 -2 -12 -12z"/>
<path d="M2070 2353 c0 -6 62 -34 67 -30 2 3 -5 8 -16 12 -12 3 -19 10 -17 14
3 4 -4 7 -15 7 -10 0 -19 -1 -19 -3z"/>
<path d="M2136 2346 c10 -8 21 -12 24 -10 5 6 -21 24 -34 24 -6 0 -1 -6 10
-14z"/>
<path d="M2189 2349 c-10 -6 -4 -9 19 -9 17 0 32 2 32 4 0 9 -39 13 -51 5z"/>
<path d="M2890 2350 c-8 -5 -12 -12 -9 -15 4 -3 12 1 19 10 14 17 11 19 -10 5z"/>
<path d="M2823 2343 c9 -2 23 -2 30 0 6 3 -1 5 -18 5 -16 0 -22 -2 -12 -5z"/>
<path d="M1541 2324 c0 -11 3 -14 6 -6 3 7 2 16 -1 19 -3 4 -6 -2 -5 -13z"/>
<path d="M2904 2324 c-18 -14 -18 -15 4 -4 12 6 22 13 22 15 0 8 -5 6 -26 -11z"/>
<path d="M3240 2330 c0 -5 5 -10 11 -10 8 0 8 -5 -1 -15 -10 -12 -10 -15 4
-15 17 0 20 9 10 34 -7 18 -24 22 -24 6z"/>
<path d="M1838 2318 c5 -5 16 -8 23 -6 8 3 3 7 -10 11 -17 4 -21 3 -13 -5z"/>
<path d="M2800 2320 c0 -5 5 -10 10 -10 6 0 10 5 10 10 0 6 -4 10 -10 10 -5 0
-10 -4 -10 -10z"/>
<path d="M1780 2300 c-13 -9 -13 -10 0 -10 8 0 22 5 30 10 13 9 13 10 0 10 -8
0 -22 -5 -30 -10z"/>
<path d="M2180 2300 c20 -13 33 -13 25 0 -3 6 -14 10 -23 10 -15 0 -15 -2 -2
-10z"/>
<path d="M2835 2300 c-8 -13 5 -13 25 0 13 8 13 10 -2 10 -9 0 -20 -4 -23 -10z"/>
<path d="M2309 2271 c11 -7 11 -9 0 -14 -11 -4 -11 -6 -1 -6 7 -1 20 6 28 14
14 13 12 15 -13 15 -20 0 -24 -3 -14 -9z"/>
<path d="M2525 2273 c-58 -6 -62 -18 -6 -18 31 0 48 4 48 13 0 6 -1 11 -1 10
-1 -1 -19 -3 -41 -5z"/>
<path d="M2715 2269 c-11 -17 2 -22 32 -10 l28 11 -28 -5 c-19 -4 -26 -2 -22
5 3 5 4 10 1 10 -3 0 -8 -5 -11 -11z"/>
<path d="M2393 2263 c9 -2 23 -2 30 0 6 3 -1 5 -18 5 -16 0 -22 -2 -12 -5z"/>
<path d="M2628 2263 c6 -2 18 -2 25 0 6 3 1 5 -13 5 -14 0 -19 -2 -12 -5z"/>
<path d="M3170 2250 c8 -5 20 -10 25 -10 6 0 3 5 -5 10 -8 5 -19 10 -25 10 -5
0 -3 -5 5 -10z"/>
<path d="M2373 2243 c15 -2 37 -2 50 0 12 2 0 4 -28 4 -27 0 -38 -2 -22 -4z"/>
<path d="M2608 2243 c6 -2 18 -2 25 0 6 3 1 5 -13 5 -14 0 -19 -2 -12 -5z"/>
<path d="M2668 2243 c7 -3 16 -2 19 1 4 3 -2 6 -13 5 -11 0 -14 -3 -6 -6z"/>
<path d="M3061 2190 c-13 -11 -19 -20 -14 -20 6 0 20 9 33 20 30 26 12 26 -19
0z"/>
<path d="M3148 2203 c7 -3 16 -2 19 1 4 3 -2 6 -13 5 -11 0 -14 -3 -6 -6z"/>
<path d="M3102 2180 c-7 -11 -19 -20 -26 -20 -8 0 -18 -4 -21 -10 -3 -5 0 -10
7 -10 19 1 60 38 56 50 -2 6 -9 1 -16 -10z"/>
<path d="M1486 2165 c-3 -9 -6 -22 -5 -28 0 -7 5 -1 10 12 5 13 8 26 5 28 -2
2 -6 -3 -10 -12z"/>
<path d="M1997 2153 c-7 -7 11 -33 23 -33 3 0 7 6 7 14 0 8 -6 12 -15 8 -10
-3 -13 -1 -8 6 8 13 3 16 -7 5z"/>
<path d="M3008 2123 c7 -3 16 -2 19 1 4 3 -2 6 -13 5 -11 0 -14 -3 -6 -6z"/>
<path d="M3053 2123 c9 -2 23 -2 30 0 6 3 -1 5 -18 5 -16 0 -22 -2 -12 -5z"/>
<path d="M1440 2109 c0 -5 5 -7 10 -4 6 3 10 8 10 11 0 2 -4 4 -10 4 -5 0 -10
-5 -10 -11z"/>
<path d="M2080 2110 c0 -5 7 -10 15 -10 8 0 15 5 15 10 0 6 -7 10 -15 10 -8 0
-15 -4 -15 -10z"/>
<path d="M2920 2110 c0 -5 6 -10 14 -10 8 0 18 5 21 10 3 6 -3 10 -14 10 -12
0 -21 -4 -21 -10z"/>
<path d="M2831 2091 c-11 -7 -10 -10 5 -15 21 -6 63 -1 73 10 3 4 -11 4 -32 0
-27 -5 -37 -4 -32 3 8 13 4 14 -14 2z"/>
<path d="M1456 2073 c-6 -14 -5 -15 5 -6 7 7 10 15 7 18 -3 3 -9 -2 -12 -12z"/>
<path d="M1757 2084 c-9 -10 4 -35 15 -28 6 4 5 10 -3 16 -10 7 -4 8 16 4 22
-5 26 -4 15 4 -17 11 -34 13 -43 4z"/>
<path d="M2130 2070 c0 -5 9 -10 21 -10 11 0 17 5 14 10 -3 6 -13 10 -21 10
-8 0 -14 -4 -14 -10z"/>
<path d="M2189 2073 c10 -4 8 -9 -10 -19 -13 -7 -18 -13 -11 -14 7 0 23 5 34
11 17 9 18 13 7 20 -8 5 -18 8 -24 8 -5 0 -4 -3 4 -6z"/>
<path d="M2278 2063 c6 -2 18 -2 25 0 6 3 1 5 -13 5 -14 0 -19 -2 -12 -5z"/>
<path d="M2940 2061 c0 -6 5 -13 10 -16 6 -3 10 1 10 9 0 9 -4 16 -10 16 -5 0
-10 -4 -10 -9z"/>
<path d="M1708 2053 c7 -3 16 -2 19 1 4 3 -2 6 -13 5 -11 0 -14 -3 -6 -6z"/>
<path d="M2315 2050 c-3 -6 1 -7 9 -4 18 7 21 14 7 14 -6 0 -13 -4 -16 -10z"/>
<path d="M2828 2053 c7 -3 16 -2 19 1 4 3 -2 6 -13 5 -11 0 -14 -3 -6 -6z"/>
<path d="M2880 2050 c0 -5 5 -10 10 -10 6 0 10 5 10 10 0 6 -4 10 -10 10 -5 0
-10 -4 -10 -10z"/>
<path d="M2458 2043 c7 -3 16 -2 19 1 4 3 -2 6 -13 5 -11 0 -14 -3 -6 -6z"/>
<path d="M1560 2020 c-13 -8 -12 -10 3 -10 9 0 17 5 17 10 0 12 -1 12 -20 0z"/>
<path d="M1468 1989 c-20 -11 -24 -29 -7 -29 5 0 8 4 5 9 -4 5 6 14 21 19 16
6 21 11 13 11 -8 0 -23 -4 -32 -10z"/>
<path d="M1573 1984 c0 -8 6 -14 14 -14 7 0 13 4 13 9 0 5 -6 11 -13 14 -8 3
-14 -1 -14 -9z"/>
<path d="M1510 1980 c-12 -8 -12 -10 3 -16 10 -3 21 -4 24 0 4 3 1 6 -6 6 -7
0 -9 5 -6 10 8 12 4 12 -15 0z"/>
<path d="M822 1620 c0 -14 2 -19 5 -12 2 6 2 18 0 25 -3 6 -5 1 -5 -13z"/>
<path d="M1011 1635 c0 -5 4 -19 8 -29 7 -19 8 -19 13 2 4 12 2 20 -2 17 -5
-3 -11 1 -13 7 -3 7 -5 9 -6 3z"/>
<path d="M1170 1635 c0 -5 5 -17 10 -25 5 -8 10 -10 10 -5 0 6 -5 17 -10 25
-5 8 -10 11 -10 5z"/>
<path d="M2300 1629 c0 -5 5 -7 10 -4 6 3 10 8 10 11 0 2 -4 4 -10 4 -5 0 -10
-5 -10 -11z"/>
<path d="M2360 1630 c0 -5 5 -10 10 -10 6 0 10 5 10 10 0 6 -4 10 -10 10 -5 0
-10 -4 -10 -10z"/>
<path d="M3123 1610 c-1 -11 2 -18 8 -15 11 7 12 35 1 35 -4 0 -8 -9 -9 -20z"/>
<path d="M3336 1614 c-9 -24 -2 -26 12 -4 7 11 8 20 3 20 -5 0 -12 -7 -15 -16z"/>
<path d="M690 1610 c0 -5 5 -10 11 -10 5 0 7 5 4 10 -3 6 -8 10 -11 10 -2 0
-4 -4 -4 -10z"/>
<path d="M1125 1610 c3 -5 8 -10 11 -10 2 0 4 5 4 10 0 6 -5 10 -11 10 -5 0
-7 -4 -4 -10z"/>
<path d="M1330 1611 c0 -5 5 -13 10 -16 6 -3 10 -2 10 4 0 5 -4 13 -10 16 -5
3 -10 2 -10 -4z"/>
<path d="M2446 1611 c-6 -10 24 -25 32 -16 3 3 -1 5 -9 5 -11 0 -11 2 1 10 13
8 13 10 -2 10 -9 0 -19 -4 -22 -9z"/>
<path d="M1156 1585 c-8 -22 -8 -22 7 -28 9 -3 13 2 12 14 -2 26 -11 33 -19
14z"/>
<path d="M2292 1580 c0 -14 2 -19 5 -12 2 6 2 18 0 25 -3 6 -5 1 -5 -13z"/>
<path d="M535 1581 c-3 -5 -1 -12 5 -16 5 -3 10 1 10 9 0 18 -6 21 -15 7z"/>
<path d="M812 1565 c0 -16 2 -22 5 -12 2 9 2 23 0 30 -3 6 -5 -1 -5 -18z"/>
<path d="M1327 1549 c6 -23 9 -24 16 -5 3 8 0 17 -7 19 -10 4 -12 -1 -9 -14z"/>
<path d="M3047 1540 c3 -11 7 -20 9 -20 2 0 4 9 4 20 0 11 -4 20 -9 20 -5 0
-7 -9 -4 -20z"/>
<path d="M3345 1549 c-4 -6 -5 -12 -2 -15 2 -3 7 2 10 11 7 17 1 20 -8 4z"/>
<path d="M3785 1550 c-3 -5 1 -10 9 -10 8 0 18 5 21 10 3 6 -1 10 -9 10 -8 0
-18 -4 -21 -10z"/>
<path d="M4270 1550 c0 -5 5 -10 11 -10 5 0 7 5 4 10 -3 6 -8 10 -11 10 -2 0
-4 -4 -4 -10z"/>
<path d="M1311 1534 c0 -11 3 -14 6 -6 3 7 2 16 -1 19 -3 4 -6 -2 -5 -13z"/>
<path d="M1528 1543 c6 -2 18 -2 25 0 6 3 1 5 -13 5 -14 0 -19 -2 -12 -5z"/>
<path d="M1658 1543 c7 -3 16 -2 19 1 4 3 -2 6 -13 5 -11 0 -14 -3 -6 -6z"/>
<path d="M1928 1543 c6 -2 18 -2 25 0 6 3 1 5 -13 5 -14 0 -19 -2 -12 -5z"/>
<path d="M2648 1543 c7 -3 16 -2 19 1 4 3 -2 6 -13 5 -11 0 -14 -3 -6 -6z"/>
<path d="M3105 1539 c-4 -6 -5 -12 -2 -15 2 -3 7 2 10 11 7 17 1 20 -8 4z"/>
<path d="M3751 1538 c0 -9 -9 -22 -18 -27 -15 -9 -12 -10 17 -11 19 0 30 4 24
8 -7 4 -14 16 -17 27 -4 15 -5 16 -6 3z"/>
<path d="M4160 1530 c0 -11 2 -20 4 -20 2 0 6 9 9 20 3 11 1 20 -4 20 -5 0 -9
-9 -9 -20z"/>
<path d="M1156 1525 c-9 -26 -7 -32 5 -12 6 10 9 21 6 23 -2 3 -7 -2 -11 -11z"/>
<path d="M3680 1526 c0 -9 5 -16 10 -16 6 0 10 4 10 9 0 6 -4 13 -10 16 -5 3
-10 -1 -10 -9z"/>
<path d="M4220 1530 c0 -6 17 -10 37 -10 43 0 41 5 -4 13 -19 4 -33 2 -33 -3z"/>
<path d="M1120 1518 c0 -9 5 -20 10 -23 13 -8 13 5 0 25 -8 13 -10 13 -10 -2z"/>
<path d="M2038 1523 c65 -6 50 -24 -18 -21 -32 1 -62 -1 -66 -5 -12 -12 108
-8 151 5 l40 12 -40 7 c-22 4 -56 7 -75 7 -31 -1 -30 -2 8 -5z"/>
<path d="M2728 1523 c6 -2 18 -2 25 0 6 3 1 5 -13 5 -14 0 -19 -2 -12 -5z"/>
<path d="M3803 1523 c9 -2 23 -2 30 0 6 3 -1 5 -18 5 -16 0 -22 -2 -12 -5z"/>
<path d="M820 1509 c0 -5 5 -7 10 -4 6 3 10 8 10 11 0 2 -4 4 -10 4 -5 0 -10
-5 -10 -11z"/>
<path d="M2648 1513 c7 -3 16 -2 19 1 4 3 -2 6 -13 5 -11 0 -14 -3 -6 -6z"/>
<path d="M1570 1500 c-20 -7 -16 -8 23 -9 26 -1 47 4 47 9 0 12 -34 12 -70 0z"/>
<path d="M2703 1503 c9 -2 23 -2 30 0 6 3 -1 5 -18 5 -16 0 -22 -2 -12 -5z"/>
<path d="M3091 1494 c0 -11 3 -14 6 -6 3 7 2 16 -1 19 -3 4 -6 -2 -5 -13z"/>
<path d="M4195 1500 c-4 -7 7 -9 30 -6 50 6 57 16 12 16 -20 0 -39 -5 -42 -10z"/>
<path d="M1325 1490 c-4 -7 -3 -15 2 -19 6 -3 13 -13 16 -21 4 -11 6 -9 6 5 1
29 -14 51 -24 35z"/>
<path d="M3040 1480 c0 -13 18 -22 24 -11 3 5 -1 11 -9 15 -8 3 -15 1 -15 -4z"/>
<path d="M3690 1479 c0 -6 -6 -9 -13 -6 -8 3 -14 -1 -14 -8 0 -11 6 -11 29 1
31 16 36 24 13 24 -8 0 -15 -5 -15 -11z"/>
<path d="M782 1460 c0 -14 2 -19 5 -12 2 6 2 18 0 25 -3 6 -5 1 -5 -13z"/>
<path d="M816 1467 c3 -10 9 -15 12 -12 3 3 0 11 -7 18 -10 9 -11 8 -5 -6z"/>
<path d="M1081 1464 c0 -11 3 -14 6 -6 3 7 2 16 -1 19 -3 4 -6 -2 -5 -13z"/>
<path d="M1715 1464 c11 -10 26 -25 33 -33 7 -9 12 -10 12 -4 0 7 -15 22 -32
34 -24 16 -28 17 -13 3z"/>
<path d="M1730 1476 c0 -2 7 -7 16 -10 8 -3 12 -2 9 4 -6 10 -25 14 -25 6z"/>
<path d="M2542 1464 c-17 -19 -15 -22 13 -20 17 1 23 6 20 15 -4 9 1 12 14 8
10 -2 24 -1 31 3 7 4 -5 7 -27 7 -22 0 -45 -6 -51 -13z"/>
<path d="M2882 1472 c-8 -2 -4 -11 13 -24 14 -11 25 -28 25 -39 0 -10 4 -19 9
-19 13 0 8 20 -15 56 -10 17 -25 29 -32 26z"/>
<path d="M2930 1469 c0 -5 5 -7 10 -4 6 3 10 8 10 11 0 2 -4 4 -10 4 -5 0 -10
-5 -10 -11z"/>
<path d="M3375 1469 c-4 -6 -5 -12 -2 -15 2 -3 7 2 10 11 7 17 1 20 -8 4z"/>
<path d="M3407 1467 c-3 -7 3 -13 13 -13 10 0 16 6 13 13 -3 7 -9 13 -13 13
-4 0 -10 -6 -13 -13z"/>
<path d="M3960 1466 c0 -8 5 -18 10 -21 6 -3 10 3 10 14 0 12 -4 21 -10 21 -5
0 -10 -6 -10 -14z"/>
<path d="M2200 1443 c13 -18 26 -30 29 -28 3 3 -8 18 -23 33 l-29 27 23 -32z"/>
<path d="M1133 1425 c-6 -19 -8 -35 -3 -35 8 0 23 60 17 67 -2 1 -8 -13 -14
-32z"/>
<path d="M3065 1440 c-4 -12 -5 -24 -2 -27 3 -2 8 5 12 17 4 12 5 24 2 27 -3
2 -8 -5 -12 -17z"/>
<path d="M741 1430 c-1 -35 14 -58 23 -34 3 9 4 19 1 22 -3 3 -6 -1 -6 -9 -1
-8 -5 0 -9 16 -7 28 -8 28 -9 5z"/>
<path d="M1307 1425 c-3 -20 -1 -23 8 -15 9 8 15 7 18 -2 4 -10 6 -10 6 0 1 7
-5 20 -13 27 -12 12 -15 11 -19 -10z"/>
<path d="M3223 1434 c-3 -9 2 -23 13 -32 17 -16 17 -16 5 0 -7 10 -11 25 -7
33 3 8 3 15 0 15 -2 0 -7 -7 -11 -16z"/>
<path d="M3391 1420 c14 -31 19 -36 19 -24 0 6 -7 19 -16 30 -14 18 -14 18 -3
-6z"/>
<path d="M3930 1436 c0 -2 7 -9 15 -16 12 -10 15 -10 15 4 0 9 -7 16 -15 16
-8 0 -15 -2 -15 -4z"/>
<path d="M4410 1435 c0 -17 22 -45 32 -39 6 4 8 -2 3 -17 -5 -19 -4 -21 4 -9
9 13 12 13 20 1 7 -10 9 -7 8 11 -1 16 -7 24 -14 21 -7 -3 -13 1 -13 8 0 11
-3 11 -10 -1 -8 -13 -10 -13 -10 2 0 9 -4 20 -10 23 -5 3 -10 3 -10 0z"/>
<path d="M1090 1416 c0 -9 5 -16 10 -16 6 0 10 4 10 9 0 6 -4 13 -10 16 -5 3
-10 -1 -10 -9z"/>
<path d="M3976 1395 c-4 -14 -2 -33 4 -43 8 -14 9 -12 4 9 -3 15 -1 30 5 33
13 9 15 26 2 26 -5 0 -12 -11 -15 -25z"/>
<path d="M2951 1394 c0 -11 3 -14 6 -6 3 7 2 16 -1 19 -3 4 -6 -2 -5 -13z"/>
<path d="M3425 1399 c-4 -6 -5 -12 -2 -15 2 -3 7 2 10 11 7 17 1 20 -8 4z"/>
<path d="M591 1390 c0 -8 4 -24 9 -35 5 -13 9 -14 9 -5 0 8 -4 24 -9 35 -5 13
-9 14 -9 5z"/>
<path d="M931 1383 c-1 -6 -4 -20 -7 -30 -5 -17 -5 -17 6 0 6 10 9 23 6 30 -3
9 -5 9 -5 0z"/>
<path d="M1975 1380 c-3 -5 1 -10 9 -10 9 0 16 5 16 10 0 6 -4 10 -9 10 -6 0
-13 -4 -16 -10z"/>
<path d="M2028 1383 c7 -3 16 -2 19 1 4 3 -2 6 -13 5 -11 0 -14 -3 -6 -6z"/>
<path d="M2690 1380 c-8 -5 -10 -10 -5 -10 6 0 17 5 25 10 8 5 11 10 5 10 -5
0 -17 -5 -25 -10z"/>
<path d="M2773 1371 c1 -11 9 -22 19 -24 16 -5 16 -3 1 19 -19 29 -22 30 -20
5z"/>
<path d="M571 1364 c0 -11 3 -14 6 -6 3 7 2 16 -1 19 -3 4 -6 -2 -5 -13z"/>
<path d="M1533 1370 c-32 -13 -29 -22 3 -10 33 13 54 13 34 0 -12 -8 -11 -10
8 -10 25 0 30 15 6 24 -19 7 -23 7 -51 -4z"/>
<path d="M2278 1373 c6 -2 18 -2 25 0 6 3 1 5 -13 5 -14 0 -19 -2 -12 -5z"/>
<path d="M2507 1351 c2 -13 -2 -28 -9 -33 -10 -8 -10 -9 1 -6 8 2 21 15 30 28
15 22 15 24 -1 18 -9 -4 -19 -2 -21 5 -2 7 -2 1 0 -12z"/>
<path d="M3256 1367 c3 -10 9 -15 12 -12 3 3 0 11 -7 18 -10 9 -11 8 -5 -6z"/>
<path d="M3743 1373 c9 -2 23 -2 30 0 6 3 -1 5 -18 5 -16 0 -22 -2 -12 -5z"/>
<path d="M4210 1364 c0 -12 4 -14 13 -7 6 6 19 13 27 16 9 3 3 6 -12 6 -20 1
-28 -4 -28 -15z"/>
<path d="M2710 1359 c0 -5 -4 -7 -10 -4 -5 3 -10 2 -10 -2 0 -14 38 -34 45
-23 3 6 -1 10 -9 10 -10 0 -13 6 -10 15 4 8 3 15 0 15 -3 0 -6 -5 -6 -11z"/>
<path d="M2730 1360 c0 -5 5 -10 11 -10 5 0 7 5 4 10 -3 6 -8 10 -11 10 -2 0
-4 -4 -4 -10z"/>
<path d="M2938 1363 c7 -3 16 -2 19 1 4 3 -2 6 -13 5 -11 0 -14 -3 -6 -6z"/>
<path d="M3700 1359 c0 -5 5 -7 10 -4 6 3 10 8 10 11 0 2 -4 4 -10 4 -5 0 -10
-5 -10 -11z"/>
<path d="M4175 1360 c-3 -5 -1 -10 4 -10 6 0 11 5 11 10 0 6 -2 10 -4 10 -3 0
-8 -4 -11 -10z"/>
<path d="M4285 1346 c10 -14 19 -26 22 -26 7 0 -17 39 -28 46 -6 3 -3 -5 6
-20z"/>
<path d="M760 1354 c0 -6 7 -19 16 -30 14 -18 14 -18 3 6 -14 31 -19 36 -19
24z"/>
<path d="M1100 1351 c0 -5 5 -13 10 -16 6 -3 10 -2 10 4 0 5 -4 13 -10 16 -5
3 -10 2 -10 -4z"/>
<path d="M1606 1343 c-6 -14 -5 -15 5 -6 7 7 10 15 7 18 -3 3 -9 -2 -12 -12z"/>
<path d="M1956 1344 c-4 -9 -4 -19 -1 -22 2 -3 7 3 11 12 4 9 4 19 1 22 -2 3
-7 -3 -11 -12z"/>
<path d="M2252 1348 c6 -18 38 -22 52 -8 8 8 7 10 -5 5 -10 -4 -20 -2 -24 4
-9 15 -28 14 -23 -1z"/>
<path d="M2455 1350 c3 -5 8 -10 11 -10 2 0 4 5 4 10 0 6 -5 10 -11 10 -5 0
-7 -4 -4 -10z"/>
<path d="M3236 1344 c-3 -9 -4 -19 -1 -22 3 -3 5 1 5 9 0 11 2 11 10 -1 5 -8
10 -10 10 -5 0 6 -4 16 -9 23 -6 11 -10 10 -15 -4z"/>
<path d="M3721 1346 c-9 -11 -8 -15 4 -20 19 -7 66 14 59 26 -3 5 -15 2 -25
-8 -11 -9 -22 -14 -26 -11 -3 4 -1 7 5 7 7 0 12 5 12 10 0 14 -16 12 -29 -4z"/>
<path d="M4225 1337 l-20 -20 25 13 c32 16 33 17 23 23 -4 2 -17 -5 -28 -16z"/>
<path d="M2020 1340 c-11 -7 -6 -10 20 -10 26 0 31 3 20 10 -8 5 -17 10 -20
10 -3 0 -12 -5 -20 -10z"/>
<path d="M2939 1343 c-1 -5 -1 -12 0 -17 1 -5 -5 -6 -14 -3 -8 4 -15 2 -15 -3
0 -5 -9 -12 -20 -15 -11 -3 -20 -11 -20 -16 0 -6 10 -3 22 5 30 21 45 20 25
-1 -14 -16 -14 -20 4 -42 10 -13 19 -18 19 -13 0 6 -6 17 -14 24 -11 11 -11
15 3 28 9 8 17 25 17 38 1 20 -4 32 -7 15z"/>
<path d="M575 1317 c-4 -14 -5 -32 -2 -39 3 -7 6 1 6 17 1 23 4 27 11 15 5 -8
10 -10 10 -5 0 6 -4 17 -9 24 -8 12 -11 9 -16 -12z"/>
<path d="M1495 1330 c-2 -3 0 -12 6 -20 5 -9 9 -10 9 -3 0 6 17 13 38 15 l37
3 -43 6 c-24 2 -45 2 -47 -1z"/>
<path d="M3790 1330 c-12 -8 -10 -10 8 -10 13 0 20 4 17 10 -7 12 -6 12 -25 0z"/>
<path d="M4175 1330 c3 -5 10 -10 16 -10 5 0 9 5 9 10 0 6 -7 10 -16 10 -8 0
-12 -4 -9 -10z"/>
<path d="M4466 1323 c-6 -14 -5 -15 5 -6 7 7 10 15 7 18 -3 3 -9 -2 -12 -12z"/>
<path d="M1251 1320 c0 -8 4 -22 9 -30 12 -18 12 -2 0 25 -6 13 -9 15 -9 5z"/>
<path d="M1879 1323 c19 -4 21 -7 10 -14 -12 -7 -12 -9 1 -9 13 0 13 -1 0 -10
-8 -5 -10 -10 -4 -10 5 0 19 7 30 15 16 13 17 14 1 9 -12 -4 -17 -2 -15 7 2 8
-7 14 -22 15 -25 2 -25 2 -1 -3z"/>
<path d="M3177 1310 c-3 -12 0 -20 8 -20 8 0 11 8 8 20 -3 11 -7 20 -8 20 -1
0 -5 -9 -8 -20z"/>
<path d="M1601 1304 c0 -11 3 -14 6 -6 3 7 2 16 -1 19 -3 4 -6 -2 -5 -13z"/>
<path d="M1811 1278 c-1 -27 3 -48 7 -48 4 0 6 17 4 38 -5 58 -10 62 -11 10z"/>
<path d="M2020 1310 c-21 -7 -21 -8 -5 -9 11 0 27 4 35 9 18 11 5 11 -30 0z"/>
<path d="M2531 1309 c0 -9 8 -24 19 -34 18 -17 20 -17 14 -2 -3 9 -10 17 -14
17 -5 0 -11 8 -13 18 -4 14 -5 14 -6 1z"/>
<path d="M2987 1299 c4 -13 8 -18 11 -10 2 7 -1 18 -6 23 -8 8 -9 4 -5 -13z"/>
<path d="M3430 1310 c0 -5 7 -7 15 -4 8 4 15 8 15 10 0 2 -7 4 -15 4 -8 0 -15
-4 -15 -10z"/>
<path d="M910 1301 c0 -5 -3 -18 -7 -28 -5 -16 -4 -16 14 2 20 20 21 35 2 35
-5 0 -9 -4 -9 -9z"/>
<path d="M771 1284 c0 -11 3 -14 6 -6 3 7 2 16 -1 19 -3 4 -6 -2 -5 -13z"/>
<path d="M1948 1293 c7 -3 16 -2 19 1 4 3 -2 6 -13 5 -11 0 -14 -3 -6 -6z"/>
<path d="M3473 1268 c1 -20 5 -34 10 -31 10 6 9 35 -3 53 -6 10 -8 4 -7 -22z"/>
<path d="M4140 1290 c0 -8 5 -22 10 -30 9 -13 10 -13 10 0 0 8 -5 22 -10 30
-9 13 -10 13 -10 0z"/>
<path d="M4472 1280 c0 -14 2 -19 5 -12 2 6 2 18 0 25 -3 6 -5 1 -5 -13z"/>
<path d="M615 1280 c-3 -5 -1 -10 4 -10 6 0 11 5 11 10 0 6 -2 10 -4 10 -3 0
-8 -4 -11 -10z"/>
<path d="M1847 1279 c7 -7 15 -10 18 -7 3 3 -2 9 -12 12 -14 6 -15 5 -6 -5z"/>
<path d="M2943 1276 c-3 -6 -2 -8 2 -3 11 10 34 -58 29 -86 -4 -20 -4 -20 4
-2 7 17 9 47 3 91 0 6 -8 11 -16 11 -9 0 -19 -5 -22 -11z"/>
<path d="M3501 1274 c0 -11 3 -14 6 -6 3 7 2 16 -1 19 -3 4 -6 -2 -5 -13z"/>
<path d="M2480 1270 c0 -6 7 -10 15 -10 8 0 15 2 15 4 0 2 -7 6 -15 10 -8 3
-15 1 -15 -4z"/>
<path d="M3451 1264 c0 -11 3 -14 6 -6 3 7 2 16 -1 19 -3 4 -6 -2 -5 -13z"/>
<path d="M1626 1261 c-4 -7 -5 -15 -2 -18 9 -9 19 4 14 18 -4 11 -6 11 -12 0z"/>
<path d="M929 1244 c-7 -8 -9 -17 -5 -21 3 -3 6 -1 6 6 0 7 6 11 13 8 8 -3 19
-2 26 3 9 5 7 9 -8 13 -11 3 -25 -1 -32 -9z"/>
<path d="M1255 1239 c-4 -5 -4 -13 -1 -16 3 -4 6 0 6 8 0 11 2 11 10 -1 6 -9
10 -10 10 -3 0 17 -17 25 -25 12z"/>
<path d="M2525 1237 c-4 -10 -5 -21 -1 -24 10 -10 18 4 13 24 -4 17 -4 17 -12
0z"/>
<path d="M2080 1235 c0 -5 5 -17 10 -25 5 -8 10 -10 10 -5 0 6 -5 17 -10 25
-5 8 -10 11 -10 5z"/>
<path d="M3506 1225 c-9 -26 -7 -32 5 -12 6 10 9 21 6 23 -2 3 -7 -2 -11 -11z"/>
<path d="M4146 1227 c3 -10 9 -15 12 -12 3 3 0 11 -7 18 -10 9 -11 8 -5 -6z"/>
<path d="M4460 1220 c0 -11 2 -20 4 -20 2 0 6 9 9 20 3 11 1 20 -4 20 -5 0 -9
-9 -9 -20z"/>
<path d="M887 1211 c-4 -17 -3 -21 5 -13 5 5 8 16 6 23 -3 8 -7 3 -11 -10z"/>
<path d="M2660 1220 c0 -6 7 -10 15 -10 8 0 15 2 15 4 0 2 -7 6 -15 10 -8 3
-15 1 -15 -4z"/>
<path d="M4271 1214 c0 -11 3 -14 6 -6 3 7 2 16 -1 19 -3 4 -6 -2 -5 -13z"/>
<path d="M941 1213 c0 -6 -4 -20 -7 -30 -5 -14 -4 -15 5 -7 7 7 11 20 8 30 -3
11 -5 14 -6 7z"/>
<path d="M961 1204 c0 -11 3 -14 6 -6 3 7 2 16 -1 19 -3 4 -6 -2 -5 -13z"/>
<path d="M1772 1200 c0 -14 2 -19 5 -12 2 6 2 18 0 25 -3 6 -5 1 -5 -13z"/>
<path d="M1261 1194 c0 -11 3 -14 6 -6 3 7 2 16 -1 19 -3 4 -6 -2 -5 -13z"/>
<path d="M1963 1203 c-7 -2 -13 -9 -13 -14 0 -6 5 -7 10 -4 6 3 10 1 10 -4 0
-6 -7 -11 -15 -11 -8 0 -15 -5 -15 -11 0 -5 5 -7 10 -4 6 4 17 1 25 -5 15 -12
35 -6 35 11 0 5 -5 9 -11 9 -5 0 -7 -5 -3 -12 5 -7 3 -8 -5 -4 -7 5 -10 14 -7
22 3 8 0 14 -7 15 -7 0 -3 4 8 9 21 9 0 12 -22 3z"/>
<path d="M2026 1197 c21 -12 21 -35 0 -49 -7 -5 -4 -8 7 -8 11 0 15 -4 11 -12
-5 -7 -3 -8 5 -3 7 4 11 18 8 31 -3 17 0 24 11 24 13 0 12 3 -4 15 -10 8 -28
14 -39 14 -19 0 -19 0 1 -12z"/>
<path d="M2500 1196 c0 -9 -5 -16 -12 -16 -6 0 -9 -2 -6 -5 9 -9 58 6 58 18 0
6 -3 7 -7 4 -3 -4 -12 -2 -20 4 -10 9 -13 8 -13 -5z"/>
<path d="M2705 1200 c4 -6 17 -7 31 -4 14 4 24 2 24 -5 0 -6 8 -11 17 -11 13
0 14 3 5 12 -14 14 -85 21 -77 8z"/>
<path d="M2648 1193 c6 -2 18 -2 25 0 6 3 1 5 -13 5 -14 0 -19 -2 -12 -5z"/>
<path d="M4293 1185 c-9 -24 1 -27 15 -5 8 13 8 20 2 20 -6 0 -13 -7 -17 -15z"/>
<path d="M2670 1173 c0 -5 5 -15 11 -23 9 -13 10 -12 5 3 -6 19 12 24 20 4 2
-7 19 -13 37 -14 20 0 24 1 9 4 -13 3 -19 9 -16 15 5 7 1 9 -9 5 -10 -3 -17
-2 -17 3 0 6 -9 10 -20 10 -11 0 -20 -3 -20 -7z"/>
<path d="M2791 1167 c-11 -14 -6 -27 10 -27 5 0 5 7 2 17 -5 12 -3 14 7 8 9
-5 11 -4 6 3 -9 15 -11 15 -25 -1z"/>
<path d="M3491 1164 c0 -11 3 -14 6 -6 3 7 2 16 -1 19 -3 4 -6 -2 -5 -13z"/>
<path d="M982 1153 c-16 -29 -15 -34 3 -27 8 4 15 1 15 -7 0 -7 2 -10 5 -8 2
3 1 18 -4 35 -7 28 -8 29 -19 7z"/>
<path d="M1772 1130 c0 -19 2 -27 5 -17 2 9 2 25 0 35 -3 9 -5 1 -5 -18z"/>
<path d="M2292 1140 c0 -14 2 -19 5 -12 2 6 2 18 0 25 -3 6 -5 1 -5 -13z"/>
<path d="M2456 1148 c3 -4 12 -8 20 -8 8 0 14 4 14 8 0 4 -9 8 -19 8 -11 0
-17 -4 -15 -8z"/>
<path d="M2945 1149 c-4 -6 -5 -12 -2 -15 2 -3 7 2 10 11 7 17 1 20 -8 4z"/>
<path d="M3287 1133 c-5 -26 -4 -26 9 -8 16 22 18 35 5 35 -5 0 -11 -12 -14
-27z"/>
<path d="M3700 1150 c0 -5 5 -10 11 -10 5 0 7 5 4 10 -3 6 -8 10 -11 10 -2 0
-4 -4 -4 -10z"/>
<path d="M4213 1145 c0 -8 4 -15 9 -15 4 0 8 4 8 9 0 5 8 12 18 14 11 3 8 5
-9 6 -17 1 -26 -4 -26 -14z"/>
<path d="M4471 1144 c0 -11 3 -14 6 -6 3 7 2 16 -1 19 -3 4 -6 -2 -5 -13z"/>
<path d="M661 1134 c0 -11 3 -14 6 -6 3 7 2 16 -1 19 -3 4 -6 -2 -5 -13z"/>
<path d="M3768 1133 c7 -3 16 -2 19 1 4 3 -2 6 -13 5 -11 0 -14 -3 -6 -6z"/>
<path d="M4431 1113 c-10 -26 -10 -27 4 -9 8 11 15 23 15 28 0 15 -7 8 -19
-19z"/>
<path d="M3341 1114 c0 -11 3 -14 6 -6 3 7 2 16 -1 19 -3 4 -6 -2 -5 -13z"/>
<path d="M3991 1114 c0 -11 3 -14 6 -6 3 7 2 16 -1 19 -3 4 -6 -2 -5 -13z"/>
<path d="M2537 1113 c-9 -9 -9 -63 1 -63 4 0 7 16 8 35 1 38 0 38 -9 28z"/>
<path d="M1812 1087 c9 -22 9 -33 0 -48 -16 -26 -15 -34 3 -19 19 16 19 51 0
76 -14 18 -14 17 -3 -9z"/>
<path d="M4452 1095 c-11 -13 -10 -15 7 -15 14 0 19 5 15 15 -7 18 -6 18 -22
0z"/>
<path d="M1260 1090 c0 -5 5 -10 10 -10 6 0 10 -7 10 -17 0 -9 3 -14 6 -10 8
8 -5 47 -17 47 -5 0 -9 -4 -9 -10z"/>
<path d="M2300 1090 c0 -5 5 -10 11 -10 5 0 7 5 4 10 -3 6 -8 10 -11 10 -2 0
-4 -4 -4 -10z"/>
<path d="M967 1055 c3 -22 7 -42 9 -44 8 -9 2 45 -6 64 -7 14 -8 8 -3 -20z"/>
<path d="M2560 1083 c0 -4 7 -15 17 -25 15 -17 15 -18 -7 -18 -15 0 -20 -4
-17 -14 3 -8 1 -17 -6 -20 -7 -2 -7 -5 -2 -5 6 -1 22 9 37 22 l26 23 -24 21
c-13 12 -24 19 -24 16z"/>
<path d="M1011 1064 c0 -11 3 -14 6 -6 3 7 2 16 -1 19 -3 4 -6 -2 -5 -13z"/>
<path d="M2935 1069 c-4 -6 -5 -12 -2 -15 2 -3 7 2 10 11 7 17 1 20 -8 4z"/>
<path d="M4800 1065 c0 -8 5 -15 10 -15 6 0 10 7 10 15 0 8 -4 15 -10 15 -5 0
-10 -7 -10 -15z"/>
<path d="M846 1053 c-4 -13 -11 -23 -16 -23 -4 0 -10 -6 -13 -14 -4 -10 0 -14
13 -13 10 1 16 5 13 10 -2 4 1 14 7 22 7 8 10 20 8 27 -3 8 -8 4 -12 -9z"/>
<path d="M2320 1066 c0 -2 8 -10 18 -17 15 -13 16 -12 3 4 -13 16 -21 21 -21
13z"/>
<path d="M650 1050 c0 -5 5 -10 11 -10 5 0 7 5 4 10 -3 6 -8 10 -11 10 -2 0
-4 -4 -4 -10z"/>
<path d="M1191 1044 c0 -11 3 -14 6 -6 3 7 2 16 -1 19 -3 4 -6 -2 -5 -13z"/>
<path d="M2095 1037 c5 -24 3 -28 -12 -23 -10 3 -24 2 -32 -3 -9 -6 -2 -9 23
-9 38 0 47 17 25 48 -8 11 -9 8 -4 -13z"/>
<path d="M2885 1049 c-11 -16 -1 -19 13 -3 7 8 8 14 3 14 -5 0 -13 -5 -16 -11z"/>
<path d="M3900 1050 c-9 -6 -10 -10 -3 -10 6 0 15 5 18 10 8 12 4 12 -15 0z"/>
<path d="M3090 1033 c0 -13 5 -23 10 -23 13 0 13 11 0 30 -8 12 -10 11 -10 -7z"/>
<path d="M3690 1040 c0 -5 5 -10 11 -10 5 0 7 5 4 10 -3 6 -8 10 -11 10 -2 0
-4 -4 -4 -10z"/>
<path d="M4160 1046 c0 -2 8 -10 18 -17 15 -13 16 -12 3 4 -13 16 -21 21 -21
13z"/>
<path d="M4350 1035 c-17 -10 -20 -14 -9 -15 9 0 22 7 29 15 15 18 12 18 -20
0z"/>
<path d="M685 1030 c3 -5 8 -10 11 -10 2 0 4 5 4 10 0 6 -5 10 -11 10 -5 0 -7
-4 -4 -10z"/>
<path d="M1322 1020 c0 -14 2 -19 5 -12 2 6 2 18 0 25 -3 6 -5 1 -5 -13z"/>
<path d="M2320 1036 c0 -12 32 -35 48 -36 7 0 11 4 8 9 -4 5 -1 11 6 13 7 3 5
7 -6 11 -10 4 -15 3 -11 -3 9 -14 -19 -12 -33 2 -7 7 -12 8 -12 4z"/>
<path d="M2638 1028 c5 -5 16 -8 23 -6 8 3 3 7 -10 11 -17 4 -21 3 -13 -5z"/>
<path d="M2845 1030 c-3 -6 1 -7 9 -4 18 7 21 14 7 14 -6 0 -13 -4 -16 -10z"/>
<path d="M2929 1028 c15 -21 31 -23 31 -6 0 6 -3 8 -7 5 -3 -4 -13 -1 -22 6
-14 11 -14 10 -2 -5z"/>
<path d="M3377 1019 c4 -13 8 -18 11 -10 2 7 -1 18 -6 23 -8 8 -9 4 -5 -13z"/>
<path d="M4385 1030 c-3 -5 -1 -10 4 -10 6 0 11 5 11 10 0 6 -2 10 -4 10 -3 0
-8 -4 -11 -10z"/>
<path d="M1500 1020 c-8 -5 -12 -12 -9 -15 4 -3 12 1 19 10 14 17 11 19 -10 5z"/>
<path d="M1660 1017 c0 -10 8 -17 18 -17 9 0 13 4 7 8 -5 4 -13 11 -17 16 -5
5 -8 2 -8 -7z"/>
<path d="M1756 1015 c3 -6 11 -12 18 -12 8 0 12 6 10 12 -3 6 -11 12 -18 12
-8 0 -12 -6 -10 -12z"/>
<path d="M2126 1015 c4 -8 8 -15 10 -15 2 0 4 7 4 15 0 8 -4 15 -10 15 -5 0
-7 -7 -4 -15z"/>
<path d="M2170 1014 c0 -8 5 -12 10 -9 6 3 10 10 10 16 0 5 -4 9 -10 9 -5 0
-10 -7 -10 -16z"/>
<path d="M2408 1023 c6 -2 18 -2 25 0 6 3 1 5 -13 5 -14 0 -19 -2 -12 -5z"/>
<path d="M2458 1023 c7 -3 16 -2 19 1 4 3 -2 6 -13 5 -11 0 -14 -3 -6 -6z"/>
<path d="M2900 1015 c0 -8 4 -15 10 -15 5 0 7 7 4 15 -4 8 -8 15 -10 15 -2 0
-4 -7 -4 -15z"/>
<path d="M3441 1014 c0 -11 3 -14 6 -6 3 7 2 16 -1 19 -3 4 -6 -2 -5 -13z"/>
<path d="M3486 1015 c4 -8 8 -15 10 -15 2 0 4 7 4 15 0 8 -4 15 -10 15 -5 0
-7 -7 -4 -15z"/>
<path d="M4821 1023 c-1 -6 -4 -20 -7 -30 -5 -17 -5 -17 6 0 6 10 9 23 6 30
-3 9 -5 9 -5 0z"/>
<path d="M660 1010 c0 -5 5 -10 11 -10 5 0 7 5 4 10 -3 6 -8 10 -11 10 -2 0
-4 -4 -4 -10z"/>
<path d="M995 1010 c-3 -5 -1 -10 4 -10 6 0 11 5 11 10 0 6 -2 10 -4 10 -3 0
-8 -4 -11 -10z"/>
<path d="M2717 1013 c-3 -5 9 -9 26 -10 26 -1 28 0 12 7 -26 11 -33 12 -38 3z"/>
<path d="M3415 1010 c-3 -5 -1 -10 4 -10 6 0 11 5 11 10 0 6 -2 10 -4 10 -3 0
-8 -4 -11 -10z"/>
<path d="M3847 1008 c2 -5 15 -8 29 -8 13 0 24 3 24 8 0 4 -13 7 -29 7 -16 0
-27 -3 -24 -7z"/>
<path d="M1948 1003 c6 -2 18 -2 25 0 6 3 1 5 -13 5 -14 0 -19 -2 -12 -5z"/>
<path d="M2428 1003 c7 -3 16 -2 19 1 4 3 -2 6 -13 5 -11 0 -14 -3 -6 -6z"/>
<path d="M2648 1003 c7 -3 16 -2 19 1 4 3 -2 6 -13 5 -11 0 -14 -3 -6 -6z"/>
<path d="M3768 1003 c7 -3 16 -2 19 1 4 3 -2 6 -13 5 -11 0 -14 -3 -6 -6z"/>
<path d="M4150 962 l5 -47 3 39 c2 21 0 42 -5 47 -4 4 -6 -13 -3 -39z"/>
<path d="M4278 1003 c6 -2 18 -2 25 0 6 3 1 5 -13 5 -14 0 -19 -2 -12 -5z"/>
<path d="M210 992 c0 -5 7 -9 15 -9 8 0 15 4 15 9 0 4 -7 8 -15 8 -8 0 -15 -4
-15 -8z"/>
<path d="M170 943 c0 -22 2 -25 10 -13 13 20 13 40 0 40 -5 0 -10 -12 -10 -27z"/>
<path d="M4802 940 c0 -14 2 -19 5 -12 2 6 2 18 0 25 -3 6 -5 1 -5 -13z"/>
<path d="M219 933 c-1 -10 -2 -31 -3 -48 -1 -16 -6 -39 -10 -50 -6 -14 -5 -16
2 -6 8 11 10 11 14 0 3 -9 6 -8 11 5 4 9 3 15 -2 12 -4 -3 -7 19 -5 49 2 30 1
55 -1 55 -3 0 -6 -8 -6 -17z"/>
<path d="M3653 876 c-6 -7 -8 -18 -4 -24 4 -6 11 -1 18 14 12 26 5 31 -14 10z"/>
<path d="M4131 874 c0 -11 3 -14 6 -6 3 7 2 16 -1 19 -3 4 -6 -2 -5 -13z"/>
<path d="M190 865 c0 -8 2 -15 4 -15 2 0 6 7 10 15 3 8 1 15 -4 15 -6 0 -10
-7 -10 -15z"/>
<path d="M4015 870 c-19 -8 -19 -9 3 -9 12 -1 22 -5 22 -9 0 -4 9 -8 20 -8 11
0 20 5 20 11 0 6 3 5 8 -1 5 -9 11 -7 21 4 13 13 10 14 -22 8 -24 -4 -37 -3
-37 4 0 12 -7 12 -35 0z"/>
<path d="M4812 860 c0 -14 2 -19 5 -12 2 6 2 18 0 25 -3 6 -5 1 -5 -13z"/>
<path d="M3568 863 c12 -2 30 -2 40 0 9 3 -1 5 -23 4 -22 0 -30 -2 -17 -4z"/>
<path d="M4727 800 c3 -19 5 -43 4 -52 0 -23 4 -23 29 2 23 23 25 31 7 24 -16
-6 -33 12 -40 41 -2 11 -2 4 0 -15z"/>
<path d="M4745 830 c3 -5 8 -10 11 -10 2 0 4 5 4 10 0 6 -5 10 -11 10 -5 0 -7
-4 -4 -10z"/>
<path d="M4790 833 c0 -6 -3 -18 -6 -27 -3 -9 -2 -16 4 -16 15 0 24 32 12 44
-7 7 -10 7 -10 -1z"/>
<path d="M248 753 c7 -3 16 -2 19 1 4 3 -2 6 -13 5 -11 0 -14 -3 -6 -6z"/>
<path d="M283 710 c0 -14 -3 -34 -8 -45 -6 -16 -4 -16 10 3 13 18 15 29 7 45
-9 21 -10 21 -9 -3z"/>
<path d="M312 710 c0 -14 2 -19 5 -12 2 6 2 18 0 25 -3 6 -5 1 -5 -13z"/>
<path d="M252 700 c14 -22 24 -19 15 5 -4 8 -11 15 -17 15 -6 0 -6 -7 2 -20z"/>
<path d="M4733 669 c-2 -23 3 -25 10 -4 4 8 3 16 -1 19 -4 3 -9 -4 -9 -15z"/>
<path d="M4640 670 c0 -5 5 -10 10 -10 6 0 10 5 10 10 0 6 -4 10 -10 10 -5 0
-10 -4 -10 -10z"/>
<path d="M337 586 c-4 -10 -1 -13 9 -9 15 6 19 23 5 23 -5 0 -11 -7 -14 -14z"/>
<path d="M4674 570 c-13 -21 -20 -26 -26 -17 -5 8 -8 6 -8 -6 0 -11 6 -17 12
-15 13 5 54 68 44 68 -2 0 -13 -13 -22 -30z"/>
<path d="M380 531 c0 -5 5 -13 10 -16 6 -3 10 -2 10 4 0 5 -4 13 -10 16 -5 3
-10 2 -10 -4z"/>
<path d="M425 513 c26 -5 52 -60 36 -76 -8 -8 -21 0 -47 29 -20 21 -30 30 -23
19 25 -37 77 -86 83 -77 10 16 -2 94 -15 103 -8 5 -23 8 -34 7 -20 -1 -20 -1
0 -5z"/>
<path d="M4590 505 c-7 -8 -16 -12 -21 -9 -10 6 -12 -9 -3 -19 9 -9 34 4 34
18 0 7 6 16 13 18 7 4 8 6 1 6 -6 1 -17 -6 -24 -14z"/>
<path d="M440 460 c0 -5 5 -10 10 -10 6 0 10 5 10 10 0 6 -4 10 -10 10 -5 0
-10 -4 -10 -10z"/>
<path d="M4526 428 c3 -4 14 -6 24 -5 31 5 32 13 1 12 -16 0 -27 -3 -25 -7z"/>
<path d="M545 420 c3 -5 8 -10 11 -10 2 0 4 5 4 10 0 6 -5 10 -11 10 -5 0 -7
-4 -4 -10z"/>
<path d="M500 410 c0 -5 7 -10 16 -10 8 0 12 5 9 10 -3 6 -10 10 -16 10 -5 0
-9 -4 -9 -10z"/>
<path d="M4495 410 c-3 -5 -3 -15 0 -20 4 -6 1 -19 -6 -28 -10 -12 -7 -11 9 3
13 11 19 21 13 23 -6 2 -8 8 -5 13 3 6 11 5 20 -2 8 -7 14 -7 14 -1 0 5 -7 13
-16 16 -21 8 -22 8 -29 -4z"/>
<path d="M540 384 c0 -8 5 -12 10 -9 6 3 10 10 10 16 0 5 -4 9 -10 9 -5 0 -10
-7 -10 -16z"/>
<path d="M495 380 c3 -5 8 -10 11 -10 2 0 4 5 4 10 0 6 -5 10 -11 10 -5 0 -7
-4 -4 -10z"/>
<path d="M544 348 c-4 -6 -3 -8 4 -4 5 3 12 1 14 -6 3 -8 6 -9 11 -1 4 6 0 13
-8 17 -8 3 -17 0 -21 -6z"/>
<path d="M4320 346 c0 -9 5 -16 10 -16 6 0 10 4 10 9 0 6 -4 13 -10 16 -5 3
-10 -1 -10 -9z"/>
<path d="M4380 350 c0 -5 5 -10 10 -10 6 0 10 5 10 10 0 6 -4 10 -10 10 -5 0
-10 -4 -10 -10z"/>
<path d="M4415 350 c-3 -5 -2 -10 4 -10 5 0 13 5 16 10 3 6 2 10 -4 10 -5 0
-13 -4 -16 -10z"/>
<path d="M605 340 c-3 -5 -1 -10 4 -10 6 0 11 5 11 10 0 6 -2 10 -4 10 -3 0
-8 -4 -11 -10z"/>
<path d="M4434 329 c-19 -22 -19 -22 3 -10 24 12 39 31 25 31 -5 0 -17 -10
-28 -21z"/>
<path d="M4382 321 c-11 -6 -9 -9 6 -13 15 -4 19 -2 15 8 -6 16 -4 16 -21 5z"/>
<path d="M626 305 c-5 -14 28 -45 49 -45 5 1 -2 7 -17 16 -17 9 -25 20 -22 29
4 8 4 15 1 15 -3 0 -7 -7 -11 -15z"/>
<path d="M4325 290 c-3 -5 3 -10 14 -10 12 0 21 5 21 10 0 6 -6 10 -14 10 -8
0 -18 -4 -21 -10z"/>
<path d="M730 270 c-9 -6 -10 -10 -3 -10 6 0 15 5 18 10 8 12 4 12 -15 0z"/>
<path d="M4168 273 c7 -3 16 -2 19 1 4 3 -2 6 -13 5 -11 0 -14 -3 -6 -6z"/>
<path d="M4220 270 c0 -5 7 -10 16 -10 23 0 9 -15 -33 -36 -31 -15 -34 -19
-18 -22 10 -2 21 1 23 7 2 6 10 11 17 11 7 0 15 7 19 15 3 8 13 15 23 15 14 1
13 4 -7 15 -30 17 -40 18 -40 5z"/>
<path d="M4278 273 c7 -3 16 -2 19 1 4 3 -2 6 -13 5 -11 0 -14 -3 -6 -6z"/>
<path d="M4325 260 c-3 -6 1 -7 9 -4 18 7 21 14 7 14 -6 0 -13 -4 -16 -10z"/>
<path d="M704 246 c11 -9 24 -16 30 -16 12 0 7 5 -24 19 -24 11 -24 11 -6 -3z"/>
<path d="M761 257 c2 -1 13 -9 24 -17 19 -14 19 -14 6 3 -7 9 -18 17 -24 17
-6 0 -8 -1 -6 -3z"/>
<path d="M4160 240 c0 -5 5 -10 11 -10 5 0 7 5 4 10 -3 6 -8 10 -11 10 -2 0
-4 -4 -4 -10z"/>
<path d="M750 226 c0 -2 9 -6 20 -9 11 -3 18 -1 14 4 -5 9 -34 13 -34 5z"/>
<path d="M870 190 c0 -5 5 -10 11 -10 5 0 7 5 4 10 -3 6 -8 10 -11 10 -2 0 -4
-4 -4 -10z"/>
<path d="M920 196 c0 -2 9 -6 20 -9 11 -3 18 -1 14 4 -5 9 -34 13 -34 5z"/>
<path d="M3928 193 c6 -2 18 -2 25 0 6 3 1 5 -13 5 -14 0 -19 -2 -12 -5z"/>
<path d="M4013 183 c9 -2 23 -2 30 0 6 3 -1 5 -18 5 -16 0 -22 -2 -12 -5z"/>
<path d="M1020 173 c23 -5 24 -6 5 -14 -15 -6 -16 -8 -4 -8 9 -1 21 5 27 12 9
10 4 13 -21 14 -26 0 -27 0 -7 -4z"/>
<path d="M1822 173 c388 -2 1027 -2 1420 0 392 1 74 2 -707 2 -781 0 -1102 -1
-713 -2z"/>
<path d="M4008 163 c7 -3 16 -2 19 1 4 3 -2 6 -13 5 -11 0 -14 -3 -6 -6z"/>
<path d="M3928 153 c7 -3 16 -2 19 1 4 3 -2 6 -13 5 -11 0 -14 -3 -6 -6z"/>
</g>
</svg>
